<svg xmlns="http://www.w3.org/2000/svg" xmlns:xlink="http://www.w3.org/1999/xlink" width="50" zoomAndPan="magnify" viewBox="0 0 37.5 37.499999" height="50" preserveAspectRatio="xMidYMid meet" version="1.0"><defs><clipPath id="c243ec0ce4"><path d="M 0 1.109375 L 37.007812 1.109375 L 37.007812 28 L 0 28 Z M 0 1.109375 " clip-rule="nonzero"/></clipPath><clipPath id="20180b2552"><path d="M 18 28 L 27 28 L 27 35.894531 L 18 35.894531 Z M 18 28 " clip-rule="nonzero"/></clipPath><clipPath id="7bbec21345"><path d="M 6.292969 29.457031 L 15.398438 29.457031 L 15.398438 34.636719 L 6.292969 34.636719 Z M 6.292969 29.457031 " clip-rule="nonzero"/></clipPath><clipPath id="81b321128c"><path d="M 7.769531 29.457031 L 13.914062 29.457031 C 14.304688 29.457031 14.679688 29.613281 14.960938 29.890625 C 15.238281 30.167969 15.394531 30.542969 15.394531 30.9375 L 15.394531 33.15625 C 15.394531 33.550781 15.238281 33.925781 14.960938 34.203125 C 14.679688 34.480469 14.304688 34.636719 13.914062 34.636719 L 7.769531 34.636719 C 7.378906 34.636719 7.003906 34.480469 6.726562 34.203125 C 6.445312 33.925781 6.292969 33.550781 6.292969 33.15625 L 6.292969 30.9375 C 6.292969 30.542969 6.445312 30.167969 6.726562 29.890625 C 7.003906 29.613281 7.378906 29.457031 7.769531 29.457031 Z M 7.769531 29.457031 " clip-rule="nonzero"/></clipPath><clipPath id="8fecebebb6"><path d="M 0.292969 0.457031 L 9.394531 0.457031 L 9.394531 5.636719 L 0.292969 5.636719 Z M 0.292969 0.457031 " clip-rule="nonzero"/></clipPath><clipPath id="f335ffa833"><path d="M 1.769531 0.457031 L 7.914062 0.457031 C 8.304688 0.457031 8.679688 0.613281 8.960938 0.890625 C 9.238281 1.167969 9.394531 1.542969 9.394531 1.9375 L 9.394531 4.15625 C 9.394531 4.550781 9.238281 4.925781 8.960938 5.203125 C 8.679688 5.480469 8.304688 5.636719 7.914062 5.636719 L 1.769531 5.636719 C 1.378906 5.636719 1.003906 5.480469 0.726562 5.203125 C 0.445312 4.925781 0.292969 4.550781 0.292969 4.15625 L 0.292969 1.9375 C 0.292969 1.542969 0.445312 1.167969 0.726562 0.890625 C 1.003906 0.613281 1.378906 0.457031 1.769531 0.457031 Z M 1.769531 0.457031 " clip-rule="nonzero"/></clipPath><clipPath id="ac0a2a1d4d"><rect x="0" width="10" y="0" height="6"/></clipPath></defs><g clip-path="url(#c243ec0ce4)"><path fill="#004aad" d="M 28.679688 26.777344 L 36.152344 26.777344 L 36.152344 1.949219 L 0.847656 1.949219 L 0.847656 26.777344 L 16.359375 26.777344 C 16.261719 26.492188 16.285156 26.167969 16.3125 25.871094 C 16.328125 25.664062 16.34375 25.402344 16.292969 25.292969 C 16.242188 25.183594 16.027344 25.042969 15.847656 24.925781 C 15.515625 24.699219 15.136719 24.445312 15.035156 24.011719 C 14.933594 23.582031 15.152344 23.179688 15.347656 22.828125 C 15.464844 22.628906 15.589844 22.390625 15.589844 22.25 C 15.589844 22.105469 15.464844 21.871094 15.347656 21.671875 C 15.152344 21.316406 14.9375 20.914062 15.035156 20.488281 C 15.136719 20.050781 15.515625 19.800781 15.847656 19.574219 C 16.023438 19.457031 16.242188 19.3125 16.292969 19.203125 C 16.34375 19.097656 16.328125 18.835938 16.3125 18.625 C 16.277344 18.230469 16.242188 17.785156 16.519531 17.441406 C 16.796875 17.101562 17.242188 17.042969 17.628906 16.984375 C 17.835938 16.957031 18.089844 16.914062 18.179688 16.839844 C 18.273438 16.765625 18.363281 16.523438 18.441406 16.328125 C 18.582031 15.957031 18.742188 15.53125 19.136719 15.339844 C 19.53125 15.144531 19.957031 15.269531 20.34375 15.386719 C 20.5625 15.457031 20.804688 15.523438 20.933594 15.496094 C 21.058594 15.472656 21.242188 15.296875 21.410156 15.144531 C 21.710938 14.867188 22.0625 14.558594 22.523438 14.558594 C 22.984375 14.558594 23.328125 14.867188 23.640625 15.144531 C 23.808594 15.296875 23.992188 15.464844 24.117188 15.496094 C 24.242188 15.53125 24.488281 15.457031 24.707031 15.386719 C 25.082031 15.269531 25.519531 15.144531 25.914062 15.339844 C 26.308594 15.53125 26.464844 15.949219 26.609375 16.328125 C 26.683594 16.519531 26.777344 16.765625 26.867188 16.839844 C 26.960938 16.914062 27.222656 16.949219 27.421875 16.984375 C 27.816406 17.042969 28.261719 17.101562 28.527344 17.441406 C 28.804688 17.785156 28.773438 18.230469 28.738281 18.625 C 28.722656 18.835938 28.703125 19.09375 28.753906 19.203125 C 28.804688 19.3125 29.023438 19.457031 29.199219 19.574219 C 29.535156 19.800781 29.914062 20.050781 30.011719 20.488281 C 30.113281 20.914062 29.894531 21.316406 29.703125 21.671875 C 29.59375 21.871094 29.460938 22.105469 29.460938 22.25 C 29.460938 22.390625 29.585938 22.628906 29.703125 22.828125 C 29.894531 23.179688 30.113281 23.582031 30.011719 24.011719 C 29.914062 24.445312 29.535156 24.699219 29.199219 24.925781 C 29.023438 25.042969 28.808594 25.183594 28.753906 25.292969 C 28.707031 25.402344 28.722656 25.664062 28.738281 25.871094 C 28.753906 26.167969 28.78125 26.492188 28.679688 26.777344 Z M 36.578125 27.625 L 26.84375 27.625 C 26.632812 27.625 26.457031 27.472656 26.421875 27.273438 C 26.390625 27.070312 26.507812 26.871094 26.707031 26.804688 C 26.902344 26.738281 27.101562 26.710938 27.296875 26.6875 C 27.496094 26.660156 27.800781 26.613281 27.867188 26.535156 C 27.933594 26.453125 27.90625 26.152344 27.890625 25.949219 C 27.867188 25.621094 27.839844 25.242188 27.992188 24.933594 C 28.144531 24.625 28.453125 24.414062 28.722656 24.230469 C 28.90625 24.105469 29.160156 23.9375 29.183594 23.828125 C 29.210938 23.71875 29.058594 23.441406 28.957031 23.25 C 28.796875 22.953125 28.613281 22.621094 28.613281 22.257812 C 28.613281 21.898438 28.796875 21.5625 28.957031 21.269531 C 29.066406 21.078125 29.214844 20.800781 29.183594 20.691406 C 29.15625 20.582031 28.90625 20.40625 28.722656 20.289062 C 28.453125 20.105469 28.144531 19.902344 27.992188 19.582031 C 27.839844 19.265625 27.867188 18.894531 27.890625 18.570312 C 27.910156 18.367188 27.933594 18.058594 27.867188 17.980469 C 27.800781 17.898438 27.496094 17.855469 27.296875 17.832031 C 26.96875 17.789062 26.601562 17.730469 26.332031 17.511719 C 26.0625 17.292969 25.929688 16.949219 25.8125 16.640625 C 25.734375 16.449219 25.628906 16.160156 25.535156 16.113281 C 25.441406 16.0625 25.140625 16.152344 24.945312 16.214844 C 24.628906 16.304688 24.269531 16.414062 23.925781 16.339844 C 23.589844 16.261719 23.328125 16.019531 23.070312 15.792969 C 22.882812 15.625 22.65625 15.425781 22.523438 15.425781 C 22.390625 15.425781 22.164062 15.632812 21.980469 15.792969 C 21.726562 16.019531 21.457031 16.261719 21.125 16.339844 C 20.78125 16.421875 20.417969 16.3125 20.101562 16.214844 C 19.90625 16.15625 19.605469 16.0625 19.511719 16.113281 C 19.421875 16.160156 19.3125 16.449219 19.238281 16.640625 C 19.121094 16.949219 18.992188 17.292969 18.714844 17.511719 C 18.4375 17.730469 18.078125 17.78125 17.753906 17.832031 C 17.550781 17.855469 17.25 17.90625 17.179688 17.980469 C 17.113281 18.066406 17.140625 18.367188 17.15625 18.570312 C 17.179688 18.894531 17.207031 19.273438 17.054688 19.582031 C 16.902344 19.894531 16.59375 20.105469 16.324219 20.289062 C 16.140625 20.414062 15.886719 20.582031 15.863281 20.691406 C 15.839844 20.796875 15.988281 21.074219 16.089844 21.269531 C 16.25 21.5625 16.433594 21.898438 16.433594 22.257812 C 16.433594 22.621094 16.25 22.953125 16.089844 23.25 C 15.980469 23.441406 15.832031 23.71875 15.863281 23.828125 C 15.890625 23.9375 16.140625 24.113281 16.324219 24.230469 C 16.59375 24.414062 16.902344 24.613281 17.054688 24.933594 C 17.214844 25.253906 17.179688 25.621094 17.15625 25.949219 C 17.140625 26.148438 17.113281 26.460938 17.179688 26.535156 C 17.25 26.621094 17.550781 26.660156 17.753906 26.6875 C 17.945312 26.710938 18.144531 26.746094 18.339844 26.804688 C 18.539062 26.871094 18.65625 27.070312 18.625 27.273438 C 18.589844 27.472656 18.414062 27.625 18.207031 27.625 L 0.429688 27.625 C 0.191406 27.625 0 27.433594 0 27.207031 L 0 1.53125 C 0 1.292969 0.191406 1.109375 0.429688 1.109375 L 36.578125 1.109375 C 36.8125 1.109375 37.007812 1.304688 37.007812 1.539062 L 37.007812 27.214844 C 36.996094 27.433594 36.8125 27.625 36.578125 27.625 Z M 36.578125 27.625 " fill-opacity="1" fill-rule="evenodd"/></g><path fill="#004aad" d="M 29.851562 24.355469 L 32.585938 24.355469 L 33.734375 23.207031 L 33.734375 5.511719 L 32.585938 4.363281 L 4.417969 4.363281 L 3.269531 5.511719 L 3.269531 23.207031 L 4.417969 24.355469 L 15.195312 24.355469 C 15.121094 24.253906 15.070312 24.136719 15.035156 24.011719 C 14.933594 23.585938 15.152344 23.183594 15.347656 22.832031 C 15.464844 22.628906 15.589844 22.394531 15.589844 22.25 C 15.589844 22.109375 15.464844 21.875 15.347656 21.671875 C 15.152344 21.320312 14.9375 20.917969 15.035156 20.488281 C 15.136719 20.054688 15.515625 19.800781 15.847656 19.574219 C 16.023438 19.457031 16.242188 19.316406 16.292969 19.207031 C 16.34375 19.097656 16.328125 18.835938 16.3125 18.628906 C 16.277344 18.234375 16.242188 17.789062 16.519531 17.445312 C 16.796875 17.101562 17.242188 17.042969 17.628906 16.984375 C 17.835938 16.960938 18.089844 16.917969 18.179688 16.84375 C 18.273438 16.765625 18.363281 16.523438 18.441406 16.332031 C 18.582031 15.960938 18.742188 15.53125 19.136719 15.339844 C 19.53125 15.148438 19.957031 15.273438 20.34375 15.390625 C 20.5625 15.457031 20.804688 15.523438 20.933594 15.5 C 21.058594 15.472656 21.242188 15.296875 21.410156 15.148438 C 21.710938 14.871094 22.0625 14.558594 22.523438 14.558594 C 22.984375 14.558594 23.328125 14.871094 23.640625 15.148438 C 23.808594 15.296875 23.992188 15.464844 24.117188 15.5 C 24.242188 15.53125 24.488281 15.457031 24.707031 15.390625 C 25.082031 15.273438 25.519531 15.148438 25.914062 15.339844 C 26.308594 15.53125 26.464844 15.953125 26.609375 16.332031 C 26.683594 16.523438 26.777344 16.765625 26.867188 16.84375 C 26.960938 16.917969 27.222656 16.949219 27.421875 16.984375 C 27.816406 17.042969 28.261719 17.101562 28.527344 17.445312 C 28.804688 17.789062 28.773438 18.234375 28.738281 18.628906 C 28.722656 18.835938 28.703125 19.097656 28.753906 19.207031 C 28.804688 19.316406 29.023438 19.457031 29.199219 19.574219 C 29.535156 19.800781 29.914062 20.054688 30.011719 20.488281 C 30.113281 20.917969 29.894531 21.320312 29.703125 21.671875 C 29.59375 21.875 29.460938 22.109375 29.460938 22.25 C 29.460938 22.394531 29.585938 22.628906 29.703125 22.832031 C 29.894531 23.183594 30.113281 23.585938 30.011719 24.011719 C 29.980469 24.136719 29.929688 24.253906 29.851562 24.355469 Z M 32.761719 25.203125 L 28.671875 25.203125 C 28.488281 25.203125 28.328125 25.085938 28.269531 24.917969 C 28.210938 24.75 28.269531 24.554688 28.410156 24.449219 C 28.511719 24.363281 28.621094 24.296875 28.730469 24.222656 C 28.914062 24.09375 29.167969 23.925781 29.191406 23.820312 C 29.214844 23.710938 29.066406 23.433594 28.964844 23.238281 C 28.804688 22.945312 28.621094 22.609375 28.621094 22.25 C 28.621094 21.890625 28.804688 21.554688 28.964844 21.261719 C 29.074219 21.066406 29.222656 20.792969 29.191406 20.683594 C 29.164062 20.574219 28.914062 20.394531 28.730469 20.28125 C 28.460938 20.09375 28.152344 19.894531 28 19.574219 C 27.847656 19.257812 27.875 18.886719 27.898438 18.5625 C 27.917969 18.359375 27.941406 18.050781 27.875 17.972656 C 27.804688 17.890625 27.503906 17.847656 27.304688 17.820312 C 26.976562 17.78125 26.605469 17.722656 26.339844 17.503906 C 26.070312 17.285156 25.9375 16.941406 25.820312 16.632812 C 25.742188 16.4375 25.632812 16.152344 25.542969 16.105469 C 25.449219 16.054688 25.148438 16.144531 24.953125 16.203125 C 24.636719 16.296875 24.277344 16.40625 23.933594 16.332031 C 23.597656 16.253906 23.335938 16.011719 23.074219 15.785156 C 22.890625 15.617188 22.664062 15.417969 22.53125 15.417969 C 22.398438 15.417969 22.171875 15.625 21.988281 15.785156 C 21.734375 16.011719 21.464844 16.253906 21.128906 16.332031 C 20.785156 16.414062 20.425781 16.304688 20.109375 16.203125 C 19.914062 16.144531 19.613281 16.054688 19.519531 16.105469 C 19.429688 16.152344 19.320312 16.4375 19.242188 16.632812 C 19.125 16.941406 19 17.285156 18.722656 17.503906 C 18.445312 17.722656 18.085938 17.773438 17.757812 17.820312 C 17.558594 17.847656 17.257812 17.898438 17.1875 17.972656 C 17.121094 18.058594 17.148438 18.359375 17.164062 18.5625 C 17.1875 18.886719 17.214844 19.265625 17.0625 19.574219 C 16.910156 19.886719 16.601562 20.09375 16.332031 20.28125 C 16.148438 20.40625 15.894531 20.574219 15.871094 20.683594 C 15.847656 20.789062 15.996094 21.066406 16.097656 21.261719 C 16.257812 21.554688 16.441406 21.890625 16.441406 22.25 C 16.441406 22.609375 16.257812 22.945312 16.097656 23.238281 C 15.988281 23.433594 15.839844 23.710938 15.871094 23.820312 C 15.898438 23.925781 16.148438 24.105469 16.332031 24.222656 C 16.441406 24.289062 16.550781 24.363281 16.652344 24.449219 C 16.792969 24.554688 16.851562 24.75 16.792969 24.917969 C 16.734375 25.085938 16.574219 25.203125 16.390625 25.203125 L 4.261719 25.203125 C 4.152344 25.203125 4.042969 25.160156 3.957031 25.078125 L 2.566406 23.683594 C 2.492188 23.609375 2.441406 23.5 2.441406 23.382812 L 2.441406 5.335938 C 2.441406 5.226562 2.480469 5.117188 2.566406 5.035156 L 3.957031 3.640625 C 4.042969 3.566406 4.140625 3.515625 4.261719 3.515625 L 32.78125 3.515625 C 32.890625 3.515625 33 3.558594 33.082031 3.640625 L 34.457031 5.042969 C 34.53125 5.117188 34.582031 5.226562 34.582031 5.34375 L 34.582031 23.382812 C 34.582031 23.492188 34.542969 23.601562 34.457031 23.683594 L 33.066406 25.078125 C 32.980469 25.160156 32.878906 25.203125 32.761719 25.203125 Z M 32.761719 25.203125 " fill-opacity="1" fill-rule="evenodd"/><path fill="#004aad" d="M 10.429688 6.6875 C 8.886719 6.6875 7.3125 6.820312 6.332031 7.808594 C 5.910156 8.230469 5.652344 8.765625 5.566406 9.394531 L 5.359375 10.828125 C 5.25 11.574219 5.617188 12.289062 6.289062 12.632812 L 8.195312 13.605469 C 8.8125 13.921875 9.535156 13.847656 10.082031 13.410156 L 11.824219 12.003906 C 11.984375 11.875 12.203125 11.875 12.351562 12.003906 L 14.097656 13.410156 C 14.640625 13.847656 15.363281 13.921875 15.984375 13.605469 L 17.886719 12.632812 C 18.558594 12.289062 18.925781 11.582031 18.816406 10.828125 L 18.617188 9.394531 C 18.359375 7.59375 16.90625 6.726562 14.046875 6.6875 C 13.675781 6.679688 13.300781 6.6875 12.929688 6.695312 C 12.65625 6.703125 12.371094 6.703125 12.085938 6.703125 C 11.832031 6.703125 11.570312 6.695312 11.296875 6.695312 C 11.027344 6.695312 10.734375 6.6875 10.429688 6.6875 Z M 8.996094 14.644531 C 8.59375 14.644531 8.195312 14.550781 7.816406 14.359375 L 5.910156 13.386719 C 4.921875 12.882812 4.367188 11.8125 4.527344 10.710938 L 4.730469 9.277344 C 4.847656 8.464844 5.183594 7.769531 5.734375 7.214844 C 7.164062 5.78125 9.476562 5.824219 11.328125 5.847656 C 11.597656 5.859375 11.859375 5.859375 12.101562 5.859375 C 12.378906 5.859375 12.65625 5.847656 12.929688 5.847656 C 13.308594 5.839844 13.695312 5.832031 14.070312 5.839844 C 15.472656 5.859375 16.570312 6.066406 17.417969 6.46875 C 18.601562 7.03125 19.289062 7.976562 19.472656 9.269531 L 19.675781 10.703125 C 19.832031 11.800781 19.273438 12.875 18.289062 13.378906 L 16.386719 14.351562 C 15.464844 14.820312 14.390625 14.710938 13.585938 14.066406 L 12.101562 12.875 L 10.617188 14.066406 C 10.140625 14.453125 9.578125 14.644531 8.996094 14.644531 Z M 8.996094 14.644531 " fill-opacity="1" fill-rule="evenodd"/><path fill="#004aad" d="M 7.167969 11.039062 L 8.988281 11.96875 L 11.839844 9.679688 C 12 9.554688 12.21875 9.554688 12.367188 9.679688 L 15.21875 11.96875 L 17.039062 11.039062 L 16.839844 9.65625 C 16.796875 9.359375 16.714844 9.183594 16.554688 9.050781 C 16.152344 8.714844 15.261719 8.523438 14.046875 8.507812 C 13.6875 8.496094 13.308594 8.507812 12.949219 8.515625 C 12.671875 8.523438 12.394531 8.523438 12.109375 8.523438 C 11.925781 8.523438 11.699219 8.515625 11.464844 8.515625 C 10.273438 8.480469 8.277344 8.4375 7.632812 9.09375 C 7.488281 9.238281 7.40625 9.410156 7.371094 9.65625 Z M 15.195312 12.824219 C 15.027344 12.824219 14.859375 12.765625 14.707031 12.648438 L 12.089844 10.542969 L 9.476562 12.648438 C 9.230469 12.851562 8.914062 12.875 8.636719 12.734375 L 6.730469 11.761719 C 6.429688 11.609375 6.273438 11.292969 6.3125 10.957031 L 6.515625 9.523438 C 6.574219 9.101562 6.742188 8.75 7.007812 8.484375 C 7.914062 7.570312 9.96875 7.617188 11.460938 7.652344 C 11.6875 7.660156 11.90625 7.660156 12.082031 7.660156 C 12.351562 7.660156 12.636719 7.652344 12.902344 7.652344 C 13.273438 7.644531 13.648438 7.636719 14.027344 7.644531 C 15.476562 7.667969 16.5 7.914062 17.070312 8.390625 C 17.5 8.75 17.605469 9.210938 17.660156 9.53125 L 17.859375 10.964844 C 17.910156 11.300781 17.742188 11.609375 17.441406 11.769531 L 15.535156 12.742188 C 15.4375 12.800781 15.320312 12.824219 15.195312 12.824219 Z M 15.195312 12.824219 " fill-opacity="1" fill-rule="evenodd"/><path fill="#004aad" d="M 31.421875 7.332031 L 21.886719 7.332031 C 21.652344 7.332031 21.460938 7.140625 21.460938 6.90625 C 21.460938 6.667969 21.652344 6.476562 21.886719 6.476562 L 31.421875 6.476562 C 31.65625 6.476562 31.839844 6.667969 31.839844 6.90625 C 31.839844 7.148438 31.65625 7.332031 31.421875 7.332031 Z M 31.421875 7.332031 " fill-opacity="1" fill-rule="evenodd"/><path fill="#004aad" d="M 31.421875 9.554688 L 21.886719 9.554688 C 21.652344 9.554688 21.460938 9.363281 21.460938 9.125 C 21.460938 8.890625 21.652344 8.699219 21.886719 8.699219 L 31.421875 8.699219 C 31.65625 8.699219 31.839844 8.890625 31.839844 9.125 C 31.839844 9.363281 31.65625 9.554688 31.421875 9.554688 Z M 31.421875 9.554688 " fill-opacity="1" fill-rule="evenodd"/><path fill="#004aad" d="M 31.421875 11.777344 L 21.886719 11.777344 C 21.652344 11.777344 21.460938 11.582031 21.460938 11.355469 C 21.460938 11.121094 21.652344 10.929688 21.886719 10.929688 L 31.421875 10.929688 C 31.65625 10.929688 31.839844 11.121094 31.839844 11.355469 C 31.839844 11.582031 31.65625 11.777344 31.421875 11.777344 Z M 31.421875 11.777344 " fill-opacity="1" fill-rule="evenodd"/><path fill="#004aad" d="M 31.421875 13.988281 L 21.886719 13.988281 C 21.652344 13.988281 21.460938 13.796875 21.460938 13.5625 C 21.460938 13.328125 21.652344 13.132812 21.886719 13.132812 L 31.421875 13.132812 C 31.65625 13.132812 31.839844 13.328125 31.839844 13.5625 C 31.839844 13.804688 31.65625 13.988281 31.421875 13.988281 Z M 31.421875 13.988281 " fill-opacity="1" fill-rule="evenodd"/><path fill="#004aad" d="M 18.925781 16.691406 L 5.054688 16.691406 C 4.820312 16.691406 4.628906 16.5 4.628906 16.261719 C 4.628906 16.027344 4.820312 15.835938 5.054688 15.835938 L 18.917969 15.835938 C 19.152344 15.835938 19.347656 16.027344 19.347656 16.261719 C 19.347656 16.5 19.152344 16.691406 18.925781 16.691406 Z M 32.082031 16.691406 L 26.121094 16.691406 C 25.886719 16.691406 25.691406 16.5 25.691406 16.261719 C 25.691406 16.027344 25.886719 15.835938 26.121094 15.835938 L 32.082031 15.835938 C 32.320312 15.835938 32.503906 16.027344 32.503906 16.261719 C 32.511719 16.5 32.320312 16.691406 32.082031 16.691406 Z M 32.082031 16.691406 " fill-opacity="1" fill-rule="evenodd"/><path fill="#004aad" d="M 16.722656 18.753906 L 5.054688 18.753906 C 4.820312 18.753906 4.628906 18.5625 4.628906 18.324219 C 4.628906 18.089844 4.820312 17.898438 5.054688 17.898438 L 16.722656 17.898438 C 16.957031 17.898438 17.148438 18.089844 17.148438 18.324219 C 17.140625 18.5625 16.957031 18.753906 16.722656 18.753906 Z M 32.082031 18.753906 L 28.328125 18.753906 C 28.089844 18.753906 27.898438 18.5625 27.898438 18.324219 C 27.898438 18.089844 28.089844 17.898438 28.328125 17.898438 L 32.082031 17.898438 C 32.320312 17.898438 32.503906 18.089844 32.503906 18.324219 C 32.511719 18.5625 32.320312 18.753906 32.082031 18.753906 Z M 32.082031 18.753906 " fill-opacity="1" fill-rule="evenodd"/><path fill="#004aad" d="M 15.53125 20.824219 L 5.054688 20.824219 C 4.820312 20.824219 4.628906 20.632812 4.628906 20.398438 C 4.628906 20.164062 4.820312 19.96875 5.054688 19.96875 L 15.53125 19.96875 C 15.765625 19.96875 15.957031 20.164062 15.957031 20.398438 C 15.949219 20.632812 15.765625 20.824219 15.53125 20.824219 Z M 32.082031 20.824219 L 29.507812 20.824219 C 29.273438 20.824219 29.082031 20.632812 29.082031 20.398438 C 29.082031 20.164062 29.273438 19.96875 29.507812 19.96875 L 32.082031 19.96875 C 32.320312 19.96875 32.503906 20.164062 32.503906 20.398438 C 32.511719 20.632812 32.320312 20.824219 32.082031 20.824219 Z M 32.082031 20.824219 " fill-opacity="1" fill-rule="evenodd"/><path fill="#004aad" d="M 15.984375 22.886719 L 5.054688 22.886719 C 4.820312 22.886719 4.628906 22.695312 4.628906 22.460938 C 4.628906 22.226562 4.820312 22.03125 5.054688 22.03125 L 15.984375 22.03125 C 16.21875 22.03125 16.410156 22.226562 16.410156 22.460938 C 16.402344 22.703125 16.21875 22.886719 15.984375 22.886719 Z M 32.082031 22.886719 L 29.066406 22.886719 C 28.832031 22.886719 28.636719 22.695312 28.636719 22.460938 C 28.636719 22.226562 28.832031 22.03125 29.066406 22.03125 L 32.085938 22.03125 C 32.320312 22.03125 32.503906 22.226562 32.503906 22.460938 C 32.511719 22.703125 32.320312 22.886719 32.082031 22.886719 Z M 32.082031 22.886719 " fill-opacity="1" fill-rule="evenodd"/><path fill="#004aad" d="M 20.871094 28.144531 C 20.957031 28.144531 21.046875 28.15625 21.132812 28.171875 C 21.46875 28.246094 21.726562 28.488281 21.988281 28.714844 C 22.171875 28.882812 22.398438 29.085938 22.53125 29.085938 C 22.667969 29.085938 22.894531 28.875 23.078125 28.714844 C 23.328125 28.488281 23.597656 28.246094 23.933594 28.171875 C 24.277344 28.085938 24.636719 28.195312 24.957031 28.296875 C 25.15625 28.355469 25.449219 28.449219 25.542969 28.398438 C 25.636719 28.347656 25.742188 28.0625 25.820312 27.871094 C 25.9375 27.558594 26.0625 27.214844 26.339844 26.996094 C 26.609375 26.78125 26.976562 26.730469 27.304688 26.679688 C 27.503906 26.652344 27.808594 26.605469 27.875 26.527344 C 27.941406 26.445312 27.917969 26.144531 27.898438 25.941406 C 27.875 25.613281 27.851562 25.238281 28 24.925781 C 28.152344 24.617188 28.460938 24.40625 28.730469 24.222656 C 28.914062 24.097656 29.167969 23.929688 29.191406 23.820312 C 29.21875 23.710938 29.066406 23.433594 28.964844 23.242188 C 28.804688 22.949219 28.621094 22.613281 28.621094 22.25 C 28.621094 21.890625 28.804688 21.554688 28.964844 21.261719 C 29.074219 21.070312 29.226562 20.792969 29.191406 20.683594 C 29.167969 20.574219 28.914062 20.398438 28.730469 20.28125 C 28.464844 20.097656 28.152344 19.894531 28 19.574219 C 27.851562 19.257812 27.875 18.886719 27.898438 18.5625 C 27.917969 18.359375 27.941406 18.050781 27.875 17.972656 C 27.808594 17.890625 27.503906 17.847656 27.304688 17.824219 C 26.976562 17.78125 26.609375 17.722656 26.339844 17.503906 C 26.070312 17.285156 25.9375 16.941406 25.820312 16.632812 C 25.742188 16.441406 25.636719 16.15625 25.542969 16.105469 C 25.449219 16.054688 25.148438 16.144531 24.957031 16.207031 C 24.636719 16.296875 24.277344 16.40625 23.933594 16.332031 C 23.597656 16.253906 23.339844 16.011719 23.078125 15.785156 C 22.894531 15.617188 22.667969 15.417969 22.53125 15.417969 C 22.398438 15.417969 22.171875 15.625 21.988281 15.785156 C 21.734375 16.011719 21.46875 16.253906 21.132812 16.332031 C 20.789062 16.414062 20.425781 16.304688 20.109375 16.207031 C 19.917969 16.148438 19.613281 16.054688 19.523438 16.105469 C 19.429688 16.15625 19.320312 16.441406 19.246094 16.632812 C 19.128906 16.941406 19 17.285156 18.726562 17.503906 C 18.449219 17.722656 18.085938 17.773438 17.761719 17.824219 C 17.558594 17.847656 17.257812 17.898438 17.191406 17.972656 C 17.121094 18.058594 17.148438 18.359375 17.164062 18.5625 C 17.191406 18.886719 17.214844 19.265625 17.0625 19.574219 C 16.914062 19.886719 16.601562 20.097656 16.332031 20.28125 C 16.148438 20.40625 15.898438 20.574219 15.871094 20.683594 C 15.847656 20.792969 16 21.066406 16.097656 21.261719 C 16.257812 21.554688 16.441406 21.890625 16.441406 22.25 C 16.441406 22.613281 16.257812 22.949219 16.097656 23.242188 C 15.992188 23.433594 15.839844 23.710938 15.871094 23.820312 C 15.898438 23.929688 16.148438 24.105469 16.332031 24.222656 C 16.601562 24.40625 16.914062 24.609375 17.0625 24.925781 C 17.222656 25.246094 17.1875 25.613281 17.164062 25.941406 C 17.148438 26.140625 17.121094 26.453125 17.191406 26.527344 C 17.257812 26.613281 17.558594 26.652344 17.761719 26.679688 C 18.085938 26.722656 18.457031 26.78125 18.726562 26.996094 C 18.992188 27.214844 19.125 27.558594 19.246094 27.871094 C 19.320312 28.0625 19.429688 28.347656 19.523438 28.398438 C 19.613281 28.449219 19.914062 28.355469 20.109375 28.296875 C 20.34375 28.222656 20.605469 28.144531 20.871094 28.144531 Z M 22.523438 29.941406 C 22.0625 29.941406 21.71875 29.628906 21.410156 29.351562 C 21.242188 29.203125 21.054688 29.035156 20.929688 29 C 20.804688 28.964844 20.5625 29.042969 20.34375 29.109375 C 19.964844 29.226562 19.53125 29.351562 19.136719 29.160156 C 18.742188 28.964844 18.582031 28.546875 18.4375 28.167969 C 18.363281 27.976562 18.269531 27.734375 18.179688 27.65625 C 18.089844 27.582031 17.835938 27.550781 17.625 27.515625 C 17.234375 27.457031 16.789062 27.398438 16.519531 27.054688 C 16.242188 26.710938 16.277344 26.265625 16.308594 25.871094 C 16.328125 25.660156 16.34375 25.402344 16.292969 25.292969 C 16.242188 25.183594 16.023438 25.042969 15.847656 24.921875 C 15.511719 24.695312 15.136719 24.445312 15.035156 24.007812 C 14.933594 23.582031 15.152344 23.179688 15.347656 22.828125 C 15.464844 22.625 15.589844 22.390625 15.589844 22.25 C 15.589844 22.105469 15.464844 21.871094 15.347656 21.667969 C 15.152344 21.316406 14.933594 20.914062 15.035156 20.488281 C 15.136719 20.050781 15.511719 19.800781 15.847656 19.574219 C 16.023438 19.457031 16.242188 19.3125 16.292969 19.203125 C 16.34375 19.09375 16.328125 18.835938 16.308594 18.625 C 16.277344 18.230469 16.242188 17.785156 16.519531 17.441406 C 16.796875 17.097656 17.242188 17.039062 17.625 16.980469 C 17.835938 16.957031 18.085938 16.914062 18.179688 16.839844 C 18.273438 16.761719 18.363281 16.519531 18.4375 16.328125 C 18.582031 15.957031 18.742188 15.53125 19.136719 15.335938 C 19.527344 15.144531 19.957031 15.269531 20.34375 15.386719 C 20.5625 15.453125 20.804688 15.519531 20.929688 15.496094 C 21.054688 15.46875 21.242188 15.292969 21.410156 15.144531 C 21.710938 14.867188 22.0625 14.554688 22.523438 14.554688 C 22.984375 14.554688 23.328125 14.867188 23.640625 15.144531 C 23.808594 15.292969 23.992188 15.460938 24.117188 15.496094 C 24.242188 15.53125 24.484375 15.453125 24.703125 15.386719 C 25.082031 15.269531 25.515625 15.144531 25.914062 15.335938 C 26.304688 15.53125 26.464844 15.949219 26.609375 16.328125 C 26.683594 16.519531 26.777344 16.761719 26.867188 16.839844 C 26.960938 16.914062 27.21875 16.949219 27.421875 16.980469 C 27.816406 17.039062 28.257812 17.097656 28.527344 17.441406 C 28.804688 17.785156 28.773438 18.230469 28.738281 18.625 C 28.71875 18.835938 28.703125 19.09375 28.753906 19.203125 C 28.804688 19.3125 29.023438 19.453125 29.199219 19.574219 C 29.535156 19.800781 29.914062 20.050781 30.011719 20.488281 C 30.113281 20.914062 29.894531 21.316406 29.703125 21.667969 C 29.59375 21.871094 29.457031 22.105469 29.457031 22.25 C 29.457031 22.390625 29.582031 22.625 29.703125 22.828125 C 29.894531 23.179688 30.113281 23.582031 30.011719 24.007812 C 29.910156 24.445312 29.535156 24.695312 29.199219 24.921875 C 29.023438 25.039062 28.804688 25.183594 28.753906 25.292969 C 28.703125 25.402344 28.71875 25.660156 28.738281 25.871094 C 28.773438 26.265625 28.804688 26.710938 28.527344 27.054688 C 28.25 27.398438 27.804688 27.457031 27.421875 27.515625 C 27.210938 27.539062 26.960938 27.582031 26.867188 27.65625 C 26.773438 27.734375 26.683594 27.976562 26.609375 28.167969 C 26.464844 28.539062 26.304688 28.964844 25.914062 29.160156 C 25.519531 29.351562 25.089844 29.226562 24.703125 29.109375 C 24.484375 29.042969 24.242188 28.976562 24.117188 29 C 23.992188 29.027344 23.804688 29.203125 23.640625 29.351562 C 23.328125 29.621094 22.984375 29.941406 22.523438 29.941406 Z M 22.523438 29.941406 " fill-opacity="1" fill-rule="evenodd"/><path fill="#004aad" d="M 22.523438 24.757812 C 22.675781 24.757812 22.835938 24.800781 22.976562 24.875 L 24.796875 25.871094 C 24.832031 25.890625 24.863281 25.890625 24.890625 25.863281 C 24.921875 25.839844 24.929688 25.8125 24.921875 25.773438 L 24.539062 23.734375 C 24.480469 23.414062 24.578125 23.097656 24.816406 22.878906 L 26.324219 21.460938 C 26.347656 21.433594 26.359375 21.402344 26.347656 21.367188 C 26.339844 21.335938 26.316406 21.308594 26.273438 21.308594 L 24.21875 21.050781 C 23.890625 21.007812 23.625 20.816406 23.488281 20.523438 L 22.609375 18.644531 C 22.59375 18.609375 22.566406 18.59375 22.523438 18.59375 C 22.480469 18.59375 22.457031 18.609375 22.441406 18.644531 L 21.5625 20.53125 C 21.417969 20.824219 21.160156 21.015625 20.832031 21.058594 L 18.777344 21.316406 C 18.734375 21.328125 18.71875 21.34375 18.699219 21.375 C 18.691406 21.410156 18.691406 21.445312 18.726562 21.46875 L 20.234375 22.886719 C 20.46875 23.113281 20.578125 23.421875 20.511719 23.742188 L 20.125 25.78125 C 20.117188 25.820312 20.125 25.847656 20.160156 25.871094 C 20.195312 25.898438 20.21875 25.898438 20.253906 25.882812 L 22.074219 24.882812 C 22.214844 24.800781 22.375 24.757812 22.523438 24.757812 Z M 24.839844 26.738281 C 24.6875 26.738281 24.527344 26.695312 24.386719 26.621094 L 22.566406 25.621094 C 22.53125 25.605469 22.515625 25.605469 22.480469 25.621094 L 20.660156 26.621094 C 20.34375 26.796875 19.957031 26.769531 19.664062 26.5625 C 19.371094 26.34375 19.226562 25.992188 19.292969 25.628906 L 19.679688 23.59375 C 19.6875 23.558594 19.679688 23.535156 19.652344 23.507812 L 18.148438 22.089844 C 17.878906 21.839844 17.785156 21.46875 17.894531 21.117188 C 18.011719 20.765625 18.304688 20.523438 18.667969 20.480469 L 20.722656 20.222656 C 20.757812 20.210938 20.773438 20.203125 20.789062 20.171875 L 21.667969 18.292969 C 21.828125 17.957031 22.148438 17.757812 22.515625 17.757812 C 22.886719 17.757812 23.203125 17.964844 23.363281 18.292969 L 24.242188 20.171875 C 24.261719 20.203125 24.277344 20.210938 24.3125 20.222656 L 26.367188 20.480469 C 26.726562 20.523438 27.027344 20.773438 27.136719 21.117188 C 27.253906 21.46875 27.152344 21.839844 26.886719 22.089844 L 25.375 23.507812 C 25.351562 23.535156 25.34375 23.558594 25.351562 23.59375 L 25.738281 25.628906 C 25.804688 25.992188 25.660156 26.351562 25.367188 26.5625 C 25.214844 26.679688 25.03125 26.738281 24.839844 26.738281 Z M 24.839844 26.738281 " fill-opacity="1" fill-rule="evenodd"/><g clip-path="url(#20180b2552)"><path fill="#004aad" d="M 25.785156 35.894531 C 25.234375 35.894531 23.371094 35.828125 22.515625 34.90625 C 21.578125 35.917969 19.421875 35.902344 19.128906 35.894531 C 18.96875 35.894531 18.828125 35.792969 18.75 35.652344 C 18.683594 35.507812 18.703125 35.332031 18.800781 35.207031 C 20.335938 33.285156 20.363281 30.25 20.242188 28.613281 C 20.226562 28.378906 20.402344 28.179688 20.636719 28.160156 C 20.871094 28.144531 21.074219 28.320312 21.089844 28.554688 C 21.207031 30.125 21.183594 32.898438 19.957031 35.003906 C 20.855469 34.902344 22.003906 34.617188 22.085938 33.878906 C 22.113281 33.660156 22.289062 33.503906 22.507812 33.503906 C 22.726562 33.503906 22.902344 33.660156 22.925781 33.878906 C 23.011719 34.617188 24.160156 34.902344 25.054688 35.003906 C 23.832031 32.898438 23.816406 30.125 23.925781 28.554688 C 23.941406 28.320312 24.140625 28.144531 24.378906 28.160156 C 24.613281 28.179688 24.789062 28.378906 24.769531 28.613281 C 24.65625 30.25 24.679688 33.285156 26.214844 35.207031 C 26.3125 35.332031 26.332031 35.507812 26.261719 35.652344 C 26.195312 35.792969 26.054688 35.894531 25.886719 35.894531 C 25.886719 35.894531 25.84375 35.894531 25.785156 35.894531 Z M 25.785156 35.894531 " fill-opacity="1" fill-rule="evenodd"/></g><g clip-path="url(#7bbec21345)"><g clip-path="url(#81b321128c)"><g transform="matrix(1, 0, 0, 1, 6, 29)"><g clip-path="url(#ac0a2a1d4d)"><g clip-path="url(#8fecebebb6)"><g clip-path="url(#f335ffa833)"><path fill="#ffffff" d="M 0.292969 0.457031 L 9.398438 0.457031 L 9.398438 5.636719 L 0.292969 5.636719 Z M 0.292969 0.457031 " fill-opacity="1" fill-rule="nonzero"/></g></g></g></g></g></g></svg>