<svg xmlns="http://www.w3.org/2000/svg" xmlns:xlink="http://www.w3.org/1999/xlink" width="50" zoomAndPan="magnify" viewBox="0 0 37.5 37.499999" height="50" preserveAspectRatio="xMidYMid meet" version="1.0"><defs><clipPath id="cfe422480c"><path d="M 30 7 L 31.109375 7 L 31.109375 8 L 30 8 Z M 30 7 " clip-rule="nonzero"/></clipPath><clipPath id="c993a44044"><path d="M 19.6875 10.140625 L 24.359375 10.140625 L 24.359375 14.050781 L 19.6875 14.050781 Z M 19.6875 10.140625 " clip-rule="nonzero"/></clipPath><clipPath id="1bfd975b52"><path d="M 21.167969 10.140625 L 22.871094 10.140625 C 23.261719 10.140625 23.640625 10.296875 23.917969 10.574219 C 24.195312 10.851562 24.351562 11.226562 24.351562 11.621094 L 24.351562 12.570312 C 24.351562 12.960938 24.195312 13.335938 23.917969 13.617188 C 23.640625 13.894531 23.261719 14.050781 22.871094 14.050781 L 21.167969 14.050781 C 20.773438 14.050781 20.398438 13.894531 20.121094 13.617188 C 19.84375 13.335938 19.6875 12.960938 19.6875 12.570312 L 19.6875 11.621094 C 19.6875 11.226562 19.84375 10.851562 20.121094 10.574219 C 20.398438 10.296875 20.773438 10.140625 21.167969 10.140625 Z M 21.167969 10.140625 " clip-rule="nonzero"/></clipPath><clipPath id="2bcb5f61b9"><path d="M 0.6875 0.140625 L 5.359375 0.140625 L 5.359375 4.050781 L 0.6875 4.050781 Z M 0.6875 0.140625 " clip-rule="nonzero"/></clipPath><clipPath id="5c7f3a73f6"><path d="M 2.167969 0.140625 L 3.871094 0.140625 C 4.261719 0.140625 4.640625 0.296875 4.917969 0.574219 C 5.195312 0.851562 5.351562 1.226562 5.351562 1.621094 L 5.351562 2.570312 C 5.351562 2.960938 5.195312 3.335938 4.917969 3.617188 C 4.640625 3.894531 4.261719 4.050781 3.871094 4.050781 L 2.167969 4.050781 C 1.773438 4.050781 1.398438 3.894531 1.121094 3.617188 C 0.84375 3.335938 0.6875 2.960938 0.6875 2.570312 L 0.6875 1.621094 C 0.6875 1.226562 0.84375 0.851562 1.121094 0.574219 C 1.398438 0.296875 1.773438 0.140625 2.167969 0.140625 Z M 2.167969 0.140625 " clip-rule="nonzero"/></clipPath><clipPath id="93534548fd"><rect x="0" width="6" y="0" height="5"/></clipPath></defs><path fill="#004aad" d="M 23.878906 19.261719 C 23.972656 21.207031 23.40625 23.085938 22.957031 24.960938 C 22.882812 25.304688 22.699219 25.574219 22.40625 25.769531 C 20.726562 27.054688 18.566406 27.75 17.386719 29.601562 C 16.957031 30.226562 16.566406 30.875 16.222656 31.546875 C 15.265625 33.363281 14.011719 34.945312 12.464844 36.292969 C 11.703125 37.007812 11.089844 36.398438 10.730469 35.628906 C 10.429688 34.992188 9.113281 34.609375 9.765625 33.753906 C 11.328125 32.058594 13.242188 30.769531 15.148438 29.496094 C 15.890625 28.996094 16.082031 28.121094 16.289062 27.308594 C 16.449219 26.511719 17.351562 26.289062 17.820312 26.96875 C 18.007812 27.1875 18.449219 26.691406 18.570312 26.542969 C 18.929688 26.058594 19.15625 25.480469 19.566406 25.03125 C 19.871094 24.722656 20.242188 24.53125 20.671875 24.464844 C 21.242188 24.535156 20.808594 22.089844 20.792969 21.6875 C 20.738281 21.257812 20.703125 20.816406 20.617188 20.390625 C 20.25 20.921875 20.015625 21.558594 19.679688 22.117188 C 19.300781 22.796875 18.902344 23.46875 18.519531 24.144531 C 18.34375 24.445312 18.09375 24.65625 17.773438 24.785156 C 17.449219 24.910156 17.121094 24.925781 16.789062 24.824219 C 16.382812 24.6875 15.96875 24.582031 15.542969 24.511719 C 14.789062 24.382812 14.398438 25.167969 13.933594 25.617188 C 12.753906 27.164062 11.847656 28.910156 10.351562 30.195312 C 9.292969 31.046875 8.074219 32.90625 7.128906 30.800781 C 6.949219 30.308594 6.386719 30.199219 6.125 29.777344 C 5.945312 29.476562 5.960938 29.125 6.21875 28.90625 C 7.921875 27.328125 9.945312 26.191406 11.960938 25.0625 C 12.859375 24.5625 13.109375 23.570312 13.621094 22.757812 C 14.019531 22.21875 14.667969 22.265625 15.019531 22.832031 C 15.066406 22.914062 15.117188 23.054688 15.167969 23.058594 C 15.71875 22.800781 15.949219 22.480469 16.648438 22.699219 C 16.949219 22.746094 17.078125 21.90625 17.132812 21.679688 C 17.308594 20.636719 17.546875 19.605469 17.851562 18.59375 C 18.15625 17.625 17.949219 17.566406 17.578125 16.703125 C 17.449219 16.46875 17.84375 16.171875 17.992188 16.484375 C 18.382812 16.65625 17.621094 14.515625 17.605469 14.226562 C 17.519531 13.578125 17.304688 12.886719 17.53125 12.246094 C 18.050781 10.824219 18.519531 9.328125 19.457031 8.113281 C 19.921875 7.519531 20.71875 7.457031 21.363281 7.175781 C 20.910156 6.90625 20.425781 6.804688 19.902344 6.882812 C 21.058594 7.507812 19.867188 6.789062 18.769531 8.488281 C 18.625 8.695312 17.613281 7.917969 17.464844 7.75 C 17.195312 7.46875 17.1875 7.453125 17.449219 7.171875 C 17.535156 7.039062 18.019531 6.789062 17.664062 6.820312 C 16.425781 6.796875 12.742188 8.414062 15.546875 9.261719 C 15.644531 9.285156 15.75 9.292969 15.851562 9.316406 C 16.144531 9.386719 16.101562 9.382812 16.238281 9.113281 C 16.445312 8.691406 16.648438 8.269531 16.851562 7.847656 C 16.925781 7.699219 16.945312 7.691406 17.046875 7.808594 C 17.410156 8.222656 17.855469 8.519531 18.335938 8.78125 C 18.414062 8.832031 18.566406 8.871094 18.496094 8.988281 C 18.351562 9.175781 18.277344 9.734375 18.027344 9.738281 C 17.511719 9.75 16.992188 9.789062 16.476562 9.777344 C 14.765625 9.855469 12.953125 8.566406 15.011719 7.25 C 15.414062 7.042969 15.828125 6.859375 16.253906 6.703125 C 16.347656 6.683594 16.378906 6.644531 16.355469 6.539062 C 16.09375 4.496094 18.882812 4.917969 20.074219 5.453125 C 20.136719 5.4375 20.183594 5.347656 20.234375 5.285156 C 20.285156 5.199219 20.355469 5.183594 20.441406 5.234375 C 20.589844 5.328125 20.78125 5.390625 20.910156 5.507812 C 20.894531 5.796875 21.339844 5.6875 21.308594 5.984375 C 21.359375 6.183594 22.140625 6.128906 22.355469 6.179688 C 22.535156 6.148438 22.339844 5.898438 22.324219 5.792969 C 21.753906 4.582031 22.097656 2.542969 23.683594 2.4375 C 24.535156 2.371094 25.375 2.800781 25.675781 3.742188 C 25.722656 3.898438 25.71875 3.902344 25.5625 3.902344 C 24.246094 3.886719 23.335938 3.875 23.511719 5.488281 C 23.53125 5.789062 23.902344 6.054688 24.160156 5.992188 C 24.21875 5.980469 24.261719 5.921875 24.179688 5.90625 C 23.707031 5.691406 23.75 5.1875 23.808594 4.753906 C 23.902344 3.972656 25.394531 4.140625 25.964844 4.1875 C 26.304688 4.253906 26.4375 4.402344 26.414062 4.746094 C 26.332031 5.132812 26.417969 5.808594 25.890625 5.878906 C 25.742188 5.890625 25.8125 6.027344 25.800781 6.113281 C 25.789062 6.214844 25.871094 6.191406 25.933594 6.191406 C 27.5625 6.171875 25.933594 8.71875 25.1875 7.3125 C 25.078125 7.125 24.753906 7.0625 24.75 7.339844 C 24.742188 7.414062 24.722656 7.496094 24.820312 7.546875 C 25.0625 7.667969 25.300781 7.796875 25.53125 7.933594 C 27.703125 9 26.128906 10.6875 27.058594 12.695312 C 27.601562 14.128906 27.804688 15.648438 28.167969 17.128906 C 28.21875 17.546875 28.53125 17.945312 28.429688 18.367188 C 28.277344 18.84375 28.1875 19.398438 27.6875 19.644531 C 27.558594 19.71875 27.359375 19.832031 27.230469 19.703125 C 27.039062 19.550781 27.457031 19.261719 27.261719 19.265625 C 27.078125 19.355469 26.886719 19.371094 26.976562 19.113281 C 27.121094 18.953125 27.101562 18.761719 27.085938 18.570312 C 27.054688 18.117188 26.992188 17.65625 27.148438 17.21875 C 27.300781 16.804688 27.125 16.40625 26.929688 16.042969 C 26.59375 15.515625 26.351562 14.929688 26.042969 14.398438 C 25.8125 15.375 25.527344 14.855469 25.511719 15.230469 C 25.550781 15.425781 25.472656 15.664062 25.675781 15.789062 C 25.941406 15.960938 25.972656 16.390625 25.757812 16.628906 C 25.476562 16.914062 25.980469 16.734375 25.890625 17.6875 C 25.882812 17.917969 25.351562 17.796875 25.183594 17.851562 C 24.925781 17.871094 24.984375 17.117188 25.078125 16.960938 C 25.15625 16.800781 25.171875 16.796875 25.035156 16.660156 C 24.8125 16.433594 24.816406 16.023438 25.070312 15.839844 C 25.28125 15.714844 25.140625 15.484375 25.121094 15.300781 C 25.015625 15.078125 24.984375 15.628906 24.945312 15.714844 C 24.910156 15.878906 24.828125 16.015625 24.707031 16.132812 C 24.582031 16.246094 24.4375 16.3125 24.273438 16.335938 C 24.007812 16.34375 24.027344 16.480469 23.980469 16.699219 C 23.699219 18.074219 24.9375 17.925781 24.898438 19.367188 C 24.914062 19.414062 24.902344 19.453125 24.875 19.492188 C 24.84375 19.527344 24.804688 19.542969 24.757812 19.542969 C 24.261719 19.582031 24.296875 19.664062 24.210938 19.152344 C 24.175781 18.945312 24.089844 18.738281 24.171875 18.519531 C 24.183594 18.492188 24.144531 18.433594 24.117188 18.402344 C 23.65625 17.796875 23.90625 18.933594 23.878906 19.261719 Z M 18.046875 5.398438 C 17.414062 5.351562 16.515625 5.738281 16.746094 6.492188 C 16.742188 6.683594 17.867188 6.339844 18.085938 6.375 C 18.59375 6.3125 19.152344 6.339844 19.648438 6.3125 C 19.726562 6.265625 19.75 6.128906 19.796875 6.027344 C 19.867188 5.875 19.867188 5.871094 19.722656 5.796875 C 19.199219 5.523438 18.625 5.4375 18.046875 5.398438 Z M 22.390625 6.617188 C 21.675781 6.507812 21.070312 6.335938 22.101562 6.925781 C 22.210938 7.035156 22.386719 6.71875 22.390625 6.617188 Z M 25.777344 12.230469 C 25.929688 12.246094 25.867188 12.144531 25.847656 12.078125 C 25.796875 11.722656 25.714844 11.726562 25.65625 12.078125 C 25.628906 12.21875 25.640625 12.230469 25.777344 12.230469 Z M 25.777344 12.230469 " fill-opacity="1" fill-rule="nonzero"/><path fill="#004aad" d="M 15.265625 18.441406 C 14.535156 18.382812 13.617188 17.941406 13.140625 17.308594 C 12.773438 16.839844 12.683594 16.351562 12.972656 15.800781 C 13.320312 15.140625 13.644531 14.464844 13.96875 13.792969 C 14.558594 12.59375 15.121094 11.382812 15.71875 10.1875 C 15.75 10.082031 15.816406 10.042969 15.921875 10.074219 C 18.234375 10.46875 18.328125 9.207031 17.308594 11.859375 C 16.605469 13.375 17.789062 14.773438 17.488281 15.734375 C 17.160156 16.398438 16.835938 17.0625 16.539062 17.738281 C 16.304688 18.277344 15.8125 18.445312 15.265625 18.441406 Z M 15.265625 18.441406 " fill-opacity="1" fill-rule="nonzero"/><path fill="#004aad" d="M 17.378906 1.269531 C 17.347656 0.0351562 19.320312 0 19.316406 1.261719 C 19.269531 2.503906 17.371094 2.523438 17.378906 1.269531 Z M 17.71875 1.085938 C 17.714844 1.121094 17.722656 1.152344 17.734375 1.179688 C 17.796875 1.34375 17.894531 1.273438 17.972656 1.167969 C 18.046875 1.0625 18.164062 0.902344 18.042969 0.789062 C 17.910156 0.742188 17.785156 0.867188 17.742188 0.980469 C 17.726562 1.015625 17.71875 1.050781 17.71875 1.085938 Z M 17.71875 1.085938 " fill-opacity="1" fill-rule="nonzero"/><path fill="#004aad" d="M 20.347656 3.003906 C 20.363281 3.617188 19.34375 3.644531 19.359375 2.992188 C 19.335938 2.386719 20.386719 2.355469 20.347656 3.003906 Z M 20.347656 3.003906 " fill-opacity="1" fill-rule="nonzero"/><path fill="#004aad" d="M 30.148438 10.03125 C 29.625 10.007812 29.671875 9.222656 30.195312 9.261719 C 30.679688 9.300781 30.683594 10.042969 30.148438 10.03125 Z M 30.148438 10.03125 " fill-opacity="1" fill-rule="nonzero"/><path fill="#004aad" d="M 28.828125 10.03125 C 29.296875 10.027344 29.324219 10.785156 28.824219 10.761719 C 28.371094 10.757812 28.375 10.03125 28.828125 10.03125 Z M 28.828125 10.03125 " fill-opacity="1" fill-rule="nonzero"/><path fill="#004aad" d="M 20.957031 3.394531 C 20.933594 3.015625 21.476562 3.089844 21.476562 3.40625 C 21.457031 3.703125 20.949219 3.761719 20.957031 3.394531 Z M 20.957031 3.394531 " fill-opacity="1" fill-rule="nonzero"/><path fill="#004aad" d="M 29.261719 9.113281 C 29.425781 9.105469 29.507812 9.1875 29.511719 9.347656 C 29.515625 9.511719 29.4375 9.59375 29.273438 9.597656 C 28.949219 9.59375 28.933594 9.121094 29.261719 9.113281 Z M 29.261719 9.113281 " fill-opacity="1" fill-rule="nonzero"/><path fill="#004aad" d="M 29.597656 11.640625 C 29.300781 11.621094 29.347656 11.167969 29.628906 11.179688 C 29.949219 11.214844 29.902344 11.632812 29.597656 11.640625 Z M 29.597656 11.640625 " fill-opacity="1" fill-rule="nonzero"/><path fill="#004aad" d="M 28.84375 12.117188 C 29.152344 12.109375 29.164062 12.574219 28.855469 12.566406 C 28.566406 12.574219 28.554688 12.109375 28.84375 12.117188 Z M 28.84375 12.117188 " fill-opacity="1" fill-rule="nonzero"/><path fill="#004aad" d="M 21.597656 4.769531 C 21.890625 4.785156 21.890625 5.238281 21.582031 5.238281 C 21.3125 5.226562 21.316406 4.746094 21.597656 4.769531 Z M 21.597656 4.769531 " fill-opacity="1" fill-rule="nonzero"/><path fill="#004aad" d="M 29.78125 12.660156 C 29.488281 12.675781 29.5 12.179688 29.785156 12.21875 C 30.070312 12.222656 30.085938 12.675781 29.78125 12.660156 Z M 29.78125 12.660156 " fill-opacity="1" fill-rule="nonzero"/><path fill="#004aad" d="M 20.988281 2.140625 C 21.273438 2.132812 21.273438 2.574219 20.988281 2.574219 C 20.707031 2.589844 20.707031 2.125 20.988281 2.140625 Z M 20.988281 2.140625 " fill-opacity="1" fill-rule="nonzero"/><path fill="#004aad" d="M 20.644531 4.152344 C 20.652344 4.296875 20.582031 4.375 20.433594 4.375 C 20.285156 4.378906 20.214844 4.308594 20.214844 4.160156 C 20.222656 3.867188 20.640625 3.863281 20.644531 4.152344 Z M 20.644531 4.152344 " fill-opacity="1" fill-rule="nonzero"/><path fill="#004aad" d="M 30.144531 8.390625 C 30.144531 8.074219 30.566406 8.136719 30.574219 8.402344 C 30.570312 8.648438 30.121094 8.683594 30.144531 8.390625 Z M 30.144531 8.390625 " fill-opacity="1" fill-rule="nonzero"/><path fill="#004aad" d="M 21.351562 4.429688 C 21.351562 4.570312 21.28125 4.640625 21.140625 4.640625 C 21 4.644531 20.925781 4.574219 20.921875 4.433594 C 20.917969 4.289062 20.988281 4.214844 21.132812 4.210938 C 21.28125 4.210938 21.351562 4.28125 21.351562 4.429688 Z M 21.351562 4.429688 " fill-opacity="1" fill-rule="nonzero"/><g clip-path="url(#cfe422480c)"><path fill="#004aad" d="M 31.0625 7.597656 C 31.054688 7.871094 30.640625 7.855469 30.628906 7.589844 C 30.632812 7.292969 31.0625 7.324219 31.0625 7.597656 Z M 31.0625 7.597656 " fill-opacity="1" fill-rule="nonzero"/></g><path fill="#004aad" d="M 20.132812 2.1875 C 19.832031 2.203125 19.878906 1.769531 20.132812 1.773438 C 20.40625 1.78125 20.421875 2.195312 20.132812 2.1875 Z M 20.132812 2.1875 " fill-opacity="1" fill-rule="nonzero"/><path fill="#004aad" d="M 29.28125 13.589844 C 29.253906 13.28125 29.707031 13.339844 29.707031 13.59375 C 29.679688 13.851562 29.28125 13.875 29.28125 13.589844 Z M 29.28125 13.589844 " fill-opacity="1" fill-rule="nonzero"/><g clip-path="url(#c993a44044)"><g clip-path="url(#1bfd975b52)"><g transform="matrix(1, 0, 0, 1, 19, 10)"><g clip-path="url(#93534548fd)"><g clip-path="url(#2bcb5f61b9)"><g clip-path="url(#5c7f3a73f6)"><path fill="#004aad" d="M 0.6875 0.140625 L 5.34375 0.140625 L 5.34375 4.050781 L 0.6875 4.050781 Z M 0.6875 0.140625 " fill-opacity="1" fill-rule="nonzero"/></g></g></g></g></g></g></svg>