<svg xmlns="http://www.w3.org/2000/svg" xmlns:xlink="http://www.w3.org/1999/xlink" width="50" zoomAndPan="magnify" viewBox="0 0 37.5 37.499999" height="50" preserveAspectRatio="xMidYMid meet" version="1.0"><defs><clipPath id="9d90359ed7"><path d="M 15 17 L 33 17 L 33 37 L 15 37 Z M 15 17 " clip-rule="nonzero"/></clipPath><clipPath id="b1ef629108"><path d="M 21.644531 9.621094 L 35.773438 23.753906 L 21.121094 38.40625 L 6.988281 24.277344 Z M 21.644531 9.621094 " clip-rule="nonzero"/></clipPath><clipPath id="187e7d48e5"><path d="M 21.644531 9.621094 L 35.773438 23.753906 L 21.121094 38.40625 L 6.988281 24.277344 Z M 21.644531 9.621094 " clip-rule="nonzero"/></clipPath><clipPath id="35457d5e0d"><path d="M 8 12 L 28 12 L 28 30 L 8 30 Z M 8 12 " clip-rule="nonzero"/></clipPath><clipPath id="4b9c120de5"><path d="M 21.644531 9.621094 L 35.773438 23.753906 L 21.121094 38.40625 L 6.988281 24.277344 Z M 21.644531 9.621094 " clip-rule="nonzero"/></clipPath><clipPath id="3b3062644b"><path d="M 21.644531 9.621094 L 35.773438 23.753906 L 21.121094 38.40625 L 6.988281 24.277344 Z M 21.644531 9.621094 " clip-rule="nonzero"/></clipPath><clipPath id="b57e6a0632"><path d="M 24 21 L 30 21 L 30 27 L 24 27 Z M 24 21 " clip-rule="nonzero"/></clipPath><clipPath id="b7c5f8d2a6"><path d="M 21.644531 9.621094 L 35.773438 23.753906 L 21.121094 38.40625 L 6.988281 24.277344 Z M 21.644531 9.621094 " clip-rule="nonzero"/></clipPath><clipPath id="234cb9ff79"><path d="M 21.644531 9.621094 L 35.773438 23.753906 L 21.121094 38.40625 L 6.988281 24.277344 Z M 21.644531 9.621094 " clip-rule="nonzero"/></clipPath><clipPath id="a917cf7e33"><path d="M 18 15 L 24 15 L 24 21 L 18 21 Z M 18 15 " clip-rule="nonzero"/></clipPath><clipPath id="3dba4b6f62"><path d="M 21.644531 9.621094 L 35.773438 23.753906 L 21.121094 38.40625 L 6.988281 24.277344 Z M 21.644531 9.621094 " clip-rule="nonzero"/></clipPath><clipPath id="ebd50968fd"><path d="M 21.644531 9.621094 L 35.773438 23.753906 L 21.121094 38.40625 L 6.988281 24.277344 Z M 21.644531 9.621094 " clip-rule="nonzero"/></clipPath><clipPath id="755c4231f1"><path d="M 6.292969 7.769531 L 9.992188 7.769531 L 9.992188 11.472656 L 6.292969 11.472656 Z M 6.292969 7.769531 " clip-rule="nonzero"/></clipPath><clipPath id="edd69bcaf4"><path d="M 7.769531 7.769531 L 8.511719 7.769531 C 8.902344 7.769531 9.28125 7.925781 9.558594 8.203125 C 9.835938 8.480469 9.992188 8.859375 9.992188 9.25 L 9.992188 9.992188 C 9.992188 10.382812 9.835938 10.757812 9.558594 11.039062 C 9.28125 11.316406 8.902344 11.472656 8.511719 11.472656 L 7.769531 11.472656 C 7.378906 11.472656 7.003906 11.316406 6.726562 11.039062 C 6.445312 10.757812 6.292969 10.382812 6.292969 9.992188 L 6.292969 9.25 C 6.292969 8.859375 6.445312 8.480469 6.726562 8.203125 C 7.003906 7.925781 7.378906 7.769531 7.769531 7.769531 Z M 7.769531 7.769531 " clip-rule="nonzero"/></clipPath><clipPath id="437145ceba"><path d="M 0.292969 0.769531 L 3.992188 0.769531 L 3.992188 4.472656 L 0.292969 4.472656 Z M 0.292969 0.769531 " clip-rule="nonzero"/></clipPath><clipPath id="71a74761a0"><path d="M 1.769531 0.769531 L 2.511719 0.769531 C 2.902344 0.769531 3.28125 0.925781 3.558594 1.203125 C 3.835938 1.480469 3.992188 1.859375 3.992188 2.25 L 3.992188 2.992188 C 3.992188 3.382812 3.835938 3.757812 3.558594 4.039062 C 3.28125 4.316406 2.902344 4.472656 2.511719 4.472656 L 1.769531 4.472656 C 1.378906 4.472656 1.003906 4.316406 0.726562 4.039062 C 0.445312 3.757812 0.292969 3.382812 0.292969 2.992188 L 0.292969 2.25 C 0.292969 1.859375 0.445312 1.480469 0.726562 1.203125 C 1.003906 0.925781 1.378906 0.769531 1.769531 0.769531 Z M 1.769531 0.769531 " clip-rule="nonzero"/></clipPath><clipPath id="19189b2ea8"><rect x="0" width="4" y="0" height="5"/></clipPath><clipPath id="ce6fb755c1"><path d="M 4 3 L 25.90625 3 L 25.90625 15 L 4 15 Z M 4 3 " clip-rule="nonzero"/></clipPath><clipPath id="dc830cf4a3"><path d="M 0 0.113281 L 9 0.113281 L 9 19.355469 L 0 19.355469 Z M 0 0.113281 " clip-rule="nonzero"/></clipPath></defs><g clip-path="url(#9d90359ed7)"><g clip-path="url(#b1ef629108)"><g clip-path="url(#187e7d48e5)"><path fill="#004aad" d="M 24.960938 33.949219 C 25.925781 32.472656 26.871094 30.980469 27.804688 29.484375 C 29.289062 27.105469 30.949219 24.847656 32.597656 22.585938 C 33.023438 21.996094 33.101562 21.480469 32.679688 20.871094 C 31.851562 19.664062 30.753906 18.773438 29.519531 18.023438 C 29.261719 17.867188 28.972656 17.886719 28.703125 18.074219 C 28.296875 18.347656 27.925781 18.652344 27.578125 18.996094 C 26.316406 20.285156 25.089844 21.605469 23.796875 22.863281 C 21.789062 24.8125 19.582031 26.546875 17.402344 28.546875 C 17.011719 28.859375 16.574219 29.351562 16.152344 29.859375 C 15.613281 30.503906 15.5625 31.152344 16.097656 31.777344 C 16.578125 32.355469 16.957031 32.996094 17.222656 33.699219 C 17.515625 34.421875 18.011719 34.921875 18.753906 35.175781 C 19.660156 35.5 20.496094 35.949219 21.265625 36.523438 C 21.898438 36.984375 22.507812 36.910156 23.066406 36.355469 C 23.796875 35.632812 24.40625 34.808594 24.960938 33.949219 Z M 29.664062 18.675781 C 30.324219 19.082031 30.917969 19.5625 31.453125 20.117188 C 31.839844 20.460938 32.160156 20.863281 32.40625 21.320312 C 32.523438 21.535156 32.519531 21.675781 32.261719 21.816406 C 31.699219 22.125 31.183594 22.125 30.640625 21.777344 C 29.863281 21.28125 29.347656 20.609375 29.101562 19.726562 C 29.03125 19.5 29.003906 19.265625 29.015625 19.027344 C 29.058594 18.46875 29.207031 18.386719 29.664062 18.675781 Z M 22.257812 36.347656 C 21.949219 36.433594 21.695312 36.261719 21.523438 36.082031 C 21.378906 35.929688 21.605469 35.75 21.707031 35.59375 C 22.863281 33.832031 24.011719 32.070312 25.160156 30.304688 C 25.347656 30.019531 25.546875 29.746094 25.710938 29.449219 C 25.78125 29.324219 25.949219 29.128906 25.792969 29.03125 C 25.640625 28.933594 25.492188 29.128906 25.394531 29.265625 C 25.152344 29.605469 24.925781 29.957031 24.695312 30.308594 C 23.570312 32.042969 22.445312 33.777344 21.324219 35.511719 C 21.171875 35.746094 21.050781 35.808594 20.773438 35.613281 C 20.164062 35.179688 19.433594 34.976562 18.75 34.675781 C 18.476562 34.554688 18.371094 34.488281 18.632812 34.179688 C 19.980469 32.546875 21.402344 30.984375 22.796875 29.390625 C 23.195312 28.9375 23.609375 28.496094 24.015625 28.046875 C 24.0625 28 24.105469 27.953125 24.148438 27.902344 C 24.222656 27.800781 24.363281 27.683594 24.230469 27.566406 C 24.125 27.472656 24.015625 27.589844 23.929688 27.675781 C 23.59375 28.023438 23.246094 28.367188 22.917969 28.726562 C 22.070312 29.664062 21.226562 30.601562 20.394531 31.550781 C 19.707031 32.332031 19.039062 33.125 18.363281 33.914062 C 18.289062 34.003906 18.199219 34.082031 18.101562 34.175781 C 17.863281 33.949219 17.730469 33.667969 17.609375 33.390625 C 17.394531 32.882812 17.164062 32.382812 16.832031 31.941406 C 16.675781 31.734375 16.722656 31.605469 16.90625 31.457031 C 17.875 30.667969 18.851562 29.890625 19.796875 29.078125 C 20.777344 28.242188 21.828125 27.488281 22.722656 26.554688 C 22.804688 26.46875 22.992188 26.371094 22.894531 26.246094 C 22.78125 26.097656 22.613281 26.257812 22.519531 26.328125 C 22.070312 26.667969 21.636719 27.03125 21.203125 27.390625 C 19.929688 28.449219 18.65625 29.507812 17.382812 30.566406 C 17.121094 30.785156 16.847656 30.992188 16.597656 31.222656 C 16.414062 31.394531 16.332031 31.3125 16.257812 31.136719 C 16.09375 30.742188 16.300781 30.445312 16.527344 30.167969 C 17.113281 29.453125 17.8125 28.847656 18.488281 28.226562 C 19.210938 27.554688 19.984375 26.941406 20.71875 26.28125 C 22.246094 24.914062 23.839844 23.613281 25.246094 22.113281 C 26.222656 21.066406 27.199219 20.015625 28.230469 19.015625 C 28.316406 18.925781 28.40625 18.835938 28.523438 18.722656 C 28.453125 21.203125 30.636719 22.960938 32.105469 22.417969 C 31.992188 22.585938 31.875 22.753906 31.753906 22.921875 C 31.371094 23.46875 30.984375 24 30.597656 24.519531 C 29.894531 25.527344 29.171875 26.519531 28.496094 27.546875 C 27.300781 29.359375 26.164062 31.210938 24.996094 33.039062 C 24.3125 34.101562 23.589844 35.128906 22.714844 36.042969 C 22.589844 36.1875 22.4375 36.289062 22.257812 36.347656 Z M 22.257812 36.347656 " fill-opacity="1" fill-rule="nonzero"/></g></g></g><g clip-path="url(#35457d5e0d)"><g clip-path="url(#4b9c120de5)"><g clip-path="url(#3b3062644b)"><path fill="#004aad" d="M 21.390625 23.21875 C 19.664062 25.003906 17.933594 26.792969 16.207031 28.578125 C 15.90625 28.898438 15.566406 29.164062 15.1875 29.375 C 14.589844 29.691406 14.03125 29.632812 13.5625 29.152344 C 12.992188 28.566406 12.308594 28.164062 11.558594 27.871094 C 10.898438 27.617188 10.480469 27.152344 10.203125 26.53125 C 10.09375 26.277344 10 26.019531 9.925781 25.753906 C 9.726562 25.050781 9.320312 24.457031 8.929688 23.851562 C 8.503906 23.207031 8.570312 22.695312 9.109375 22.15625 C 10.054688 21.210938 11.1875 20.523438 12.335938 19.859375 C 15.085938 18.273438 17.839844 16.6875 20.503906 14.957031 C 21.382812 14.386719 22.242188 13.789062 23.074219 13.152344 C 23.707031 12.667969 24.257812 12.675781 24.882812 13.152344 C 25.882812 13.921875 26.878906 14.691406 27.507812 15.828125 C 27.863281 16.472656 27.839844 16.765625 27.367188 17.320312 C 25.957031 18.976562 24.3125 20.398438 22.738281 21.890625 C 22.277344 22.324219 21.84375 22.785156 21.398438 23.226562 Z M 23.359375 13.503906 C 21.035156 15.289062 18.578125 16.757812 16.113281 18.21875 C 14.222656 19.335938 12.261719 20.34375 10.476562 21.628906 C 9.996094 21.972656 9.492188 22.296875 9.210938 22.84375 C 9.09375 23.070312 9.207031 23.597656 9.425781 23.746094 C 9.644531 23.894531 9.777344 23.648438 9.921875 23.558594 C 11.976562 22.234375 14.054688 20.945312 16.152344 19.691406 C 16.328125 19.589844 16.585938 19.34375 16.722656 19.5625 C 16.816406 19.714844 16.503906 19.890625 16.3125 20.007812 C 14.339844 21.238281 12.363281 22.46875 10.386719 23.699219 C 9.757812 24.09375 9.773438 24.082031 10.058594 24.773438 C 10.289062 25.328125 10.46875 25.90625 10.679688 26.472656 C 10.75 26.65625 10.84375 26.742188 11.042969 26.570312 C 12.109375 25.652344 13.183594 24.742188 14.25 23.828125 C 15.078125 23.121094 15.898438 22.402344 16.734375 21.699219 C 16.992188 21.480469 17.277344 21.289062 17.546875 21.082031 C 17.652344 20.996094 17.796875 20.898438 17.890625 21.023438 C 17.984375 21.144531 17.824219 21.25 17.738281 21.339844 C 17.679688 21.410156 17.613281 21.476562 17.542969 21.535156 C 16.734375 22.1875 15.953125 22.871094 15.167969 23.550781 C 13.886719 24.65625 12.582031 25.738281 11.28125 26.824219 C 11.105469 26.972656 11.109375 27.0625 11.304688 27.164062 C 11.460938 27.261719 11.621094 27.347656 11.789062 27.425781 C 12.226562 27.601562 12.640625 27.824219 13.03125 28.089844 C 13.28125 28.257812 13.523438 28.558594 13.773438 28.5625 C 14.078125 28.566406 14.207031 28.152344 14.414062 27.921875 C 15.734375 26.421875 17.050781 24.917969 18.375 23.421875 C 18.644531 23.117188 18.941406 22.835938 19.234375 22.550781 C 19.300781 22.484375 19.417969 22.402344 19.511719 22.496094 C 19.585938 22.566406 19.503906 22.664062 19.460938 22.742188 C 19.425781 22.796875 19.382812 22.847656 19.335938 22.894531 C 18.578125 23.757812 17.824219 24.617188 17.074219 25.480469 C 16.15625 26.527344 15.238281 27.578125 14.324219 28.632812 C 14.246094 28.726562 14.058594 28.824219 14.15625 28.96875 C 14.246094 29.101562 14.4375 29.105469 14.59375 29.074219 C 14.722656 29.046875 14.84375 29 14.957031 28.933594 C 15.3125 28.730469 15.636719 28.484375 15.921875 28.195312 C 17.59375 26.460938 19.269531 24.734375 20.933594 22.992188 C 22.371094 21.488281 23.976562 20.160156 25.445312 18.6875 C 25.921875 18.210938 26.398438 17.730469 26.921875 17.207031 C 24.960938 17.152344 23.113281 16 23.359375 13.503906 Z M 24.554688 15.820312 C 24.914062 16.183594 25.355469 16.410156 25.828125 16.570312 C 26.179688 16.683594 26.539062 16.761719 26.90625 16.644531 C 27.191406 16.550781 27.3125 16.441406 27.125 16.109375 C 26.488281 14.980469 25.535156 14.175781 24.484375 13.472656 C 24.132812 13.234375 24.039062 13.269531 23.929688 13.679688 C 23.707031 14.515625 23.949219 15.226562 24.558594 15.816406 Z M 24.554688 15.820312 " fill-opacity="1" fill-rule="nonzero"/></g></g></g><g clip-path="url(#b57e6a0632)"><g clip-path="url(#b7c5f8d2a6)"><g clip-path="url(#234cb9ff79)"><path fill="#004aad" d="M 25.9375 23.066406 C 26.402344 22.597656 26.894531 22.152344 27.402344 21.734375 C 27.671875 21.515625 27.886719 21.511719 28.097656 21.792969 C 28.539062 22.386719 29.039062 22.917969 29.691406 23.289062 C 29.863281 23.382812 29.875 23.558594 29.769531 23.699219 C 28.976562 24.730469 28.214844 25.785156 27.15625 26.570312 C 26.746094 26.878906 26.3125 26.882812 25.871094 26.628906 C 25.484375 26.398438 25.121094 26.140625 24.855469 25.773438 C 24.457031 25.234375 24.480469 24.835938 24.871094 24.265625 C 25.195312 23.789062 25.621094 23.417969 25.9375 23.066406 Z M 27.765625 25.417969 C 28.257812 24.921875 28.710938 24.394531 29.128906 23.835938 C 29.25 23.671875 29.261719 23.582031 29.097656 23.460938 C 28.628906 23.117188 28.222656 22.710938 27.878906 22.238281 C 27.765625 22.085938 27.660156 22.050781 27.496094 22.203125 C 26.796875 22.84375 26.078125 23.453125 25.480469 24.199219 C 24.847656 24.996094 24.84375 25.171875 25.578125 25.859375 C 25.664062 25.9375 25.757812 26.011719 25.859375 26.074219 C 26.457031 26.464844 26.683594 26.453125 27.210938 25.96875 C 27.402344 25.796875 27.578125 25.601562 27.765625 25.417969 Z M 27.765625 25.417969 " fill-opacity="1" fill-rule="nonzero"/></g></g></g><g clip-path="url(#a917cf7e33)"><g clip-path="url(#3dba4b6f62)"><g clip-path="url(#ebd50968fd)"><path fill="#004aad" d="M 23.273438 18.683594 C 22.574219 19.328125 21.941406 19.996094 21.121094 20.433594 C 20.453125 20.792969 20.035156 20.738281 19.484375 20.222656 C 19.214844 19.972656 18.953125 19.722656 18.765625 19.394531 C 18.523438 18.96875 18.511719 18.566406 18.796875 18.148438 C 19.289062 17.425781 20.023438 16.976562 20.679688 16.4375 C 21.007812 16.179688 21.347656 15.9375 21.703125 15.714844 C 22.070312 15.476562 22.246094 15.515625 22.449219 15.910156 C 22.765625 16.535156 23.269531 16.988281 23.769531 17.457031 C 24 17.671875 24.019531 17.859375 23.796875 18.085938 C 23.605469 18.285156 23.429688 18.5 23.273438 18.683594 Z M 22.785156 18.535156 C 22.945312 18.375 23.09375 18.207031 23.261719 18.058594 C 23.445312 17.902344 23.445312 17.789062 23.261719 17.621094 C 22.816406 17.214844 22.382812 16.789062 22.144531 16.214844 C 22.0625 16.019531 21.9375 16.09375 21.828125 16.164062 C 20.902344 16.785156 20.003906 17.445312 19.246094 18.273438 C 18.96875 18.578125 18.949219 18.921875 19.191406 19.246094 C 19.355469 19.46875 19.539062 19.675781 19.742188 19.863281 C 20.171875 20.253906 20.480469 20.289062 20.988281 19.992188 C 21.660156 19.601562 22.234375 19.074219 22.789062 18.535156 Z M 22.785156 18.535156 " fill-opacity="1" fill-rule="nonzero"/></g></g></g><g clip-path="url(#755c4231f1)"><g clip-path="url(#edd69bcaf4)"><g transform="matrix(1, 0, 0, 1, 6, 7)"><g clip-path="url(#19189b2ea8)"><g clip-path="url(#437145ceba)"><g clip-path="url(#71a74761a0)"><path fill="#ffffff" d="M 0.292969 0.769531 L 3.992188 0.769531 L 3.992188 4.472656 L 0.292969 4.472656 Z M 0.292969 0.769531 " fill-opacity="1" fill-rule="nonzero"/></g></g></g></g></g></g><g clip-path="url(#ce6fb755c1)"><path fill="#004aad" d="M 11.316406 12.550781 C 10.742188 13.039062 10.148438 13.378906 9.453125 13.464844 C 7.925781 13.660156 6.367188 13.269531 5.371094 11.84375 C 4.992188 11.300781 4.851562 10.667969 4.8125 10.03125 C 4.757812 9.074219 4.703125 8.105469 4.988281 7.167969 C 5.277344 6.226562 5.828125 5.503906 6.78125 5.136719 C 6.890625 5.105469 6.980469 5.046875 7.058594 4.964844 C 7.679688 4.230469 8.542969 3.953125 9.441406 3.800781 C 12.136719 3.34375 14.863281 3.394531 17.582031 3.480469 C 18.867188 3.519531 20.15625 3.636719 21.398438 4.042969 C 21.957031 4.226562 22.4375 4.515625 22.816406 4.96875 C 22.925781 5.097656 23.0625 5.179688 23.226562 5.210938 C 23.964844 5.40625 24.6875 5.636719 25.328125 6.066406 C 25.820312 6.394531 26.089844 6.84375 26.070312 7.457031 C 26.046875 8.019531 26.0625 8.582031 26.027344 9.148438 C 25.960938 10.132812 25.445312 10.460938 24.582031 10.625 C 24.195312 10.699219 23.816406 10.75 23.492188 11 C 23.425781 11.050781 23.359375 11.082031 23.332031 11.1875 C 22.972656 12.734375 21.820312 13.335938 20.40625 13.628906 C 19.078125 13.90625 17.757812 13.925781 16.457031 13.484375 C 16.328125 13.441406 16.289062 13.492188 16.21875 13.574219 C 15.628906 14.292969 14.890625 14.527344 14.003906 14.210938 C 13.539062 14.042969 13.058594 14 12.570312 14.078125 C 12.128906 14.144531 11.65625 14.191406 11.351562 13.714844 C 11.128906 13.359375 11.234375 12.992188 11.316406 12.550781 Z M 13.167969 5.082031 C 11.496094 5.148438 9.726562 5.058594 7.960938 5.25 C 6.667969 5.386719 5.644531 6.167969 5.34375 7.378906 C 5.089844 8.402344 5.136719 9.445312 5.292969 10.476562 C 5.5625 12.257812 7.386719 13.371094 9.367188 13.070312 C 10.324219 12.921875 10.992188 12.332031 11.523438 11.558594 C 11.824219 11.121094 12.074219 10.652344 12.417969 10.246094 C 12.894531 9.683594 13.5625 9.683594 14.035156 10.253906 C 14.304688 10.582031 14.464844 10.972656 14.664062 11.339844 C 15.226562 12.363281 16.035156 13.0625 17.207031 13.273438 C 17.847656 13.398438 18.496094 13.429688 19.152344 13.375 C 20.40625 13.261719 21.367188 12.675781 21.9375 11.570312 C 22.585938 10.316406 22.5625 8.960938 22.367188 7.59375 C 22.191406 6.375 21.425781 5.746094 20.304688 5.464844 C 19.910156 5.367188 19.507812 5.296875 19.101562 5.261719 C 17.160156 5.09375 15.210938 5.089844 13.167969 5.082031 Z M 7.824219 4.832031 C 8.714844 4.742188 9.613281 4.734375 10.507812 4.714844 C 13.558594 4.660156 16.613281 4.570312 19.65625 4.925781 C 20.304688 5.003906 20.9375 5.152344 21.503906 5.5 C 22.074219 5.84375 22.464844 6.308594 22.664062 6.9375 C 22.753906 7.210938 22.96875 7.117188 23.128906 7.109375 C 23.351562 7.09375 23.210938 6.917969 23.203125 6.828125 C 23.097656 5.660156 22.308594 4.75 21.128906 4.390625 C 20.226562 4.113281 19.292969 3.988281 18.359375 3.941406 C 15.574219 3.792969 12.785156 3.746094 10.011719 4.128906 C 9.25 4.234375 8.5 4.40625 7.824219 4.832031 Z M 14.757812 13.921875 C 15.152344 13.945312 15.488281 13.757812 15.777344 13.457031 C 15.894531 13.332031 15.914062 13.269531 15.75 13.164062 C 15.027344 12.691406 14.523438 12.03125 14.148438 11.265625 C 14.042969 11.046875 13.921875 10.835938 13.789062 10.636719 C 13.417969 10.101562 13.039062 10.089844 12.671875 10.625 C 12.230469 11.261719 11.929688 11.972656 11.699219 12.707031 C 11.453125 13.5 11.695312 13.785156 12.519531 13.691406 C 12.539062 13.691406 12.5625 13.6875 12.585938 13.683594 C 13.035156 13.589844 13.480469 13.613281 13.921875 13.75 C 14.183594 13.824219 14.441406 13.933594 14.757812 13.921875 Z M 25.660156 7.132812 C 25.242188 7.429688 24.796875 7.472656 24.351562 7.519531 C 24.277344 7.527344 24.160156 7.453125 24.179688 7.65625 C 24.261719 8.519531 24.167969 9.382812 24.027344 10.238281 C 24.152344 10.246094 24.277344 10.246094 24.402344 10.238281 C 25.105469 10.164062 25.535156 9.808594 25.601562 9.261719 C 25.679688 8.566406 25.671875 7.875 25.660156 7.132812 Z M 23.773438 8.632812 C 23.777344 8.535156 23.78125 8.433594 23.785156 8.335938 C 23.820312 7.660156 23.800781 7.65625 23.136719 7.644531 C 22.898438 7.640625 22.835938 7.710938 22.871094 7.933594 C 23 8.714844 22.929688 9.492188 22.824219 10.273438 C 22.808594 10.40625 22.671875 10.597656 22.824219 10.6875 C 22.980469 10.777344 23.171875 10.679688 23.328125 10.601562 C 23.507812 10.511719 23.574219 10.335938 23.613281 10.144531 C 23.695312 9.644531 23.746094 9.140625 23.773438 8.632812 Z M 23.304688 5.660156 C 23.507812 6.0625 23.625 6.488281 23.652344 6.9375 C 23.664062 7.082031 23.71875 7.125 23.851562 7.121094 C 24.292969 7.113281 24.730469 7.074219 25.15625 6.929688 C 25.25 6.898438 25.359375 6.886719 25.386719 6.773438 C 25.421875 6.636719 25.300781 6.578125 25.21875 6.515625 C 24.667969 6.097656 24.023438 5.886719 23.304688 5.660156 Z M 21.4375 12.867188 C 22.121094 12.570312 22.617188 12.101562 22.828125 11.375 C 22.847656 11.304688 22.949219 11.199219 22.789062 11.179688 C 22.695312 11.164062 22.578125 11.121094 22.527344 11.289062 C 22.335938 11.933594 21.917969 12.421875 21.4375 12.867188 Z M 21.4375 12.867188 " fill-opacity="1" fill-rule="nonzero"/></g><g clip-path="url(#dc830cf4a3)"><path fill="#004aad" d="M 0 14.238281 C 0.0195312 13.246094 0.199219 12.132812 0.363281 11.019531 C 0.578125 9.558594 0.824219 8.101562 1.070312 6.644531 C 1.242188 5.613281 1.425781 4.585938 1.636719 3.558594 C 1.71875 3.148438 1.601562 2.738281 1.71875 2.320312 C 1.878906 1.75 1.976562 1.164062 2.140625 0.59375 C 2.230469 0.277344 2.414062 0.109375 2.761719 0.125 C 3.082031 0.144531 3.402344 0.136719 3.714844 0.234375 C 4.027344 0.332031 4.1875 0.539062 4.191406 0.867188 C 4.203125 1.726562 4.148438 2.632812 3.785156 3.359375 C 3.433594 4.074219 3.378906 4.800781 3.207031 5.519531 C 3.027344 6.265625 2.917969 7.03125 2.800781 7.792969 C 2.601562 9.101562 2.382812 10.40625 2.230469 11.722656 C 2.105469 12.785156 1.921875 13.847656 2.066406 14.929688 C 2.171875 15.722656 2.414062 16.4375 3.195312 16.832031 C 3.5625 17.015625 3.941406 17.082031 4.347656 16.964844 C 4.792969 16.832031 4.820312 16.792969 4.601562 16.410156 C 4.484375 16.207031 4.453125 15.988281 4.503906 15.757812 C 4.554688 15.523438 4.679688 15.34375 4.871094 15.207031 C 5.054688 15.078125 5.238281 15.0625 5.421875 15.207031 C 6.132812 15.773438 6.980469 15.996094 7.855469 16.15625 C 8.339844 16.242188 8.480469 16.570312 8.179688 16.96875 C 7.882812 17.363281 7.589844 17.796875 6.980469 17.6875 C 6.902344 17.675781 6.867188 17.730469 6.824219 17.789062 C 5.296875 19.789062 2.007812 19.484375 0.652344 17.109375 C 0.164062 16.253906 0.0078125 15.335938 0 14.238281 Z M 6.46875 17.558594 C 5.785156 17.425781 5.308594 16.917969 4.507812 17.3125 C 3.484375 17.8125 2.269531 17.046875 1.867188 15.863281 C 1.59375 15.078125 1.550781 14.261719 1.625 13.441406 C 1.734375 12.265625 1.886719 11.09375 2.054688 9.925781 C 2.335938 7.972656 2.660156 6.03125 3.050781 4.097656 C 3.179688 3.464844 3.1875 3.464844 2.53125 3.386719 C 2.484375 3.382812 2.441406 3.375 2.398438 3.359375 C 2.179688 3.28125 2.082031 3.347656 2.039062 3.585938 C 1.8125 4.886719 1.5625 6.183594 1.332031 7.484375 C 1.035156 9.171875 0.777344 10.859375 0.566406 12.554688 C 0.4375 13.582031 0.320312 14.609375 0.523438 15.65625 C 0.910156 17.65625 2.769531 18.992188 4.734375 18.613281 C 5.410156 18.480469 6 18.171875 6.46875 17.558594 Z M 3.8125 1.066406 C 3.878906 0.738281 3.679688 0.613281 3.417969 0.558594 C 3.234375 0.527344 3.046875 0.507812 2.859375 0.503906 C 2.691406 0.496094 2.589844 0.570312 2.527344 0.75 C 2.3125 1.378906 2.21875 2.035156 2.078125 2.679688 C 2.050781 2.800781 2.089844 2.855469 2.226562 2.867188 C 2.601562 2.898438 2.964844 2.96875 3.324219 3.085938 C 3.476562 3.136719 3.5 3.070312 3.515625 2.960938 C 3.617188 2.332031 3.710938 1.699219 3.808594 1.066406 Z M 7.929688 16.582031 C 6.949219 16.476562 6.070312 16.1875 5.304688 15.613281 C 5.085938 15.449219 5.011719 15.628906 4.925781 15.75 C 4.785156 15.9375 4.882812 16.101562 5.003906 16.257812 C 5.558594 16.976562 6.378906 17.121094 7.191406 17.289062 C 7.285156 17.304688 7.367188 17.277344 7.433594 17.207031 C 7.613281 17.027344 7.8125 16.867188 7.925781 16.582031 Z M 7.929688 16.582031 " fill-opacity="1" fill-rule="nonzero"/></g><path fill="#004aad" d="M 13.851562 5.921875 C 15.582031 5.921875 17.300781 6.003906 19.023438 6.128906 C 19.378906 6.144531 19.726562 6.207031 20.0625 6.3125 C 20.507812 6.453125 20.875 6.707031 21.15625 7.074219 C 21.441406 7.445312 21.59375 7.859375 21.617188 8.328125 C 21.660156 9.136719 21.617188 9.933594 21.359375 10.714844 C 20.992188 11.820312 20.191406 12.390625 19.082031 12.558594 C 18.449219 12.644531 17.820312 12.617188 17.199219 12.484375 C 16.515625 12.351562 16.003906 11.953125 15.628906 11.363281 C 15.3125 10.859375 15.050781 10.320312 14.691406 9.84375 C 14.015625 8.953125 12.832031 8.851562 12.019531 9.621094 C 11.648438 9.976562 11.398438 10.421875 11.113281 10.84375 C 10.726562 11.425781 10.308594 11.996094 9.613281 12.238281 C 8.042969 12.78125 6.386719 11.816406 6.0625 10.175781 C 5.921875 9.476562 5.898438 8.769531 5.992188 8.0625 C 6.125 7.054688 6.792969 6.367188 7.894531 6.128906 C 8.511719 5.996094 9.136719 5.925781 9.765625 5.925781 C 11.128906 5.917969 12.488281 5.921875 13.851562 5.921875 Z M 13.367188 6.332031 C 12.148438 6.332031 10.929688 6.339844 9.710938 6.328125 C 9.265625 6.324219 8.976562 6.496094 8.761719 6.898438 C 8.421875 7.539062 8.210938 8.21875 8.132812 8.9375 C 8.023438 9.894531 8.152344 10.808594 8.710938 11.628906 C 8.910156 11.921875 9.136719 11.972656 9.449219 11.859375 C 9.941406 11.679688 10.273438 11.3125 10.570312 10.910156 C 10.886719 10.484375 11.152344 10.023438 11.472656 9.601562 C 12.410156 8.378906 14.152344 8.40625 15.074219 9.640625 C 15.386719 10.058594 15.609375 10.53125 15.875 10.976562 C 16.226562 11.554688 16.6875 11.992188 17.390625 12.097656 C 17.851562 12.160156 18.316406 12.1875 18.78125 12.171875 C 19.804688 12.152344 20.621094 11.546875 20.953125 10.578125 C 21.214844 9.824219 21.296875 9.050781 21.195312 8.257812 C 21.105469 7.503906 20.710938 6.953125 19.945312 6.707031 C 19.597656 6.601562 19.238281 6.542969 18.871094 6.523438 C 17.039062 6.386719 15.203125 6.34375 13.367188 6.332031 Z M 8.558594 6.472656 C 8.359375 6.394531 8.183594 6.492188 8.007812 6.527344 C 7.335938 6.660156 6.769531 6.972656 6.539062 7.664062 C 6.21875 8.636719 6.253906 9.621094 6.589844 10.585938 C 6.863281 11.363281 7.714844 11.933594 8.398438 11.863281 C 7.296875 10.035156 7.683594 8.246094 8.558594 6.472656 Z M 8.558594 6.472656 " fill-opacity="1" fill-rule="nonzero"/></svg>