<svg xmlns="http://www.w3.org/2000/svg" xmlns:xlink="http://www.w3.org/1999/xlink" width="50" zoomAndPan="magnify" viewBox="0 0 37.5 37.499999" height="50" preserveAspectRatio="xMidYMid meet" version="1.0"><defs><clipPath id="747d41cb52"><path d="M 6.292969 29.457031 L 15.398438 29.457031 L 15.398438 34.636719 L 6.292969 34.636719 Z M 6.292969 29.457031 " clip-rule="nonzero"/></clipPath><clipPath id="7e5c04c4d4"><path d="M 7.769531 29.457031 L 13.914062 29.457031 C 14.304688 29.457031 14.679688 29.613281 14.960938 29.890625 C 15.238281 30.167969 15.394531 30.542969 15.394531 30.9375 L 15.394531 33.15625 C 15.394531 33.550781 15.238281 33.925781 14.960938 34.203125 C 14.679688 34.480469 14.304688 34.636719 13.914062 34.636719 L 7.769531 34.636719 C 7.378906 34.636719 7.003906 34.480469 6.726562 34.203125 C 6.445312 33.925781 6.292969 33.550781 6.292969 33.15625 L 6.292969 30.9375 C 6.292969 30.542969 6.445312 30.167969 6.726562 29.890625 C 7.003906 29.613281 7.378906 29.457031 7.769531 29.457031 Z M 7.769531 29.457031 " clip-rule="nonzero"/></clipPath><clipPath id="5b1ea699ee"><path d="M 0.292969 0.457031 L 9.394531 0.457031 L 9.394531 5.636719 L 0.292969 5.636719 Z M 0.292969 0.457031 " clip-rule="nonzero"/></clipPath><clipPath id="828c35c132"><path d="M 1.769531 0.457031 L 7.914062 0.457031 C 8.304688 0.457031 8.679688 0.613281 8.960938 0.890625 C 9.238281 1.167969 9.394531 1.542969 9.394531 1.9375 L 9.394531 4.15625 C 9.394531 4.550781 9.238281 4.925781 8.960938 5.203125 C 8.679688 5.480469 8.304688 5.636719 7.914062 5.636719 L 1.769531 5.636719 C 1.378906 5.636719 1.003906 5.480469 0.726562 5.203125 C 0.445312 4.925781 0.292969 4.550781 0.292969 4.15625 L 0.292969 1.9375 C 0.292969 1.542969 0.445312 1.167969 0.726562 0.890625 C 1.003906 0.613281 1.378906 0.457031 1.769531 0.457031 Z M 1.769531 0.457031 " clip-rule="nonzero"/></clipPath><clipPath id="ad74d619b5"><rect x="0" width="10" y="0" height="6"/></clipPath><clipPath id="9ea648fdc6"><path d="M 0.667969 0.667969 L 36.191406 0.667969 L 36.191406 36.191406 L 0.667969 36.191406 Z M 0.667969 0.667969 " clip-rule="nonzero"/></clipPath><clipPath id="de67bb6f38"><path d="M 21 16 L 36.191406 16 L 36.191406 27 L 21 27 Z M 21 16 " clip-rule="nonzero"/></clipPath><clipPath id="79e7bdea87"><path d="M 2 28 L 10 28 L 10 36.191406 L 2 36.191406 Z M 2 28 " clip-rule="nonzero"/></clipPath><clipPath id="1e539b1ec6"><path d="M 0.667969 11 L 8 11 L 8 18 L 0.667969 18 Z M 0.667969 11 " clip-rule="nonzero"/></clipPath><clipPath id="adc9f94fc3"><path d="M 3 0.667969 L 12 0.667969 L 12 6 L 3 6 Z M 3 0.667969 " clip-rule="nonzero"/></clipPath><clipPath id="11a1300160"><path d="M 0.667969 0.667969 L 6 0.667969 L 6 6 L 0.667969 6 Z M 0.667969 0.667969 " clip-rule="nonzero"/></clipPath><clipPath id="983fbf1b0b"><path d="M 18 28 L 21 28 L 21 36.191406 L 18 36.191406 Z M 18 28 " clip-rule="nonzero"/></clipPath><clipPath id="1fdae61ae4"><path d="M 27 27 L 34 27 L 34 36.191406 L 27 36.191406 Z M 27 27 " clip-rule="nonzero"/></clipPath><clipPath id="a996c5812f"><rect x="0" width="37" y="0" height="37"/></clipPath><clipPath id="dcb90622be"><path d="M 6.292969 7.769531 L 9.992188 7.769531 L 9.992188 11.472656 L 6.292969 11.472656 Z M 6.292969 7.769531 " clip-rule="nonzero"/></clipPath><clipPath id="649b9b85ed"><path d="M 7.769531 7.769531 L 8.511719 7.769531 C 8.902344 7.769531 9.28125 7.925781 9.558594 8.203125 C 9.835938 8.480469 9.992188 8.859375 9.992188 9.25 L 9.992188 9.992188 C 9.992188 10.382812 9.835938 10.757812 9.558594 11.039062 C 9.28125 11.316406 8.902344 11.472656 8.511719 11.472656 L 7.769531 11.472656 C 7.378906 11.472656 7.003906 11.316406 6.726562 11.039062 C 6.445312 10.757812 6.292969 10.382812 6.292969 9.992188 L 6.292969 9.25 C 6.292969 8.859375 6.445312 8.480469 6.726562 8.203125 C 7.003906 7.925781 7.378906 7.769531 7.769531 7.769531 Z M 7.769531 7.769531 " clip-rule="nonzero"/></clipPath><clipPath id="80e986ff5c"><path d="M 0.292969 0.769531 L 3.992188 0.769531 L 3.992188 4.472656 L 0.292969 4.472656 Z M 0.292969 0.769531 " clip-rule="nonzero"/></clipPath><clipPath id="50a8c143f8"><path d="M 1.769531 0.769531 L 2.511719 0.769531 C 2.902344 0.769531 3.28125 0.925781 3.558594 1.203125 C 3.835938 1.480469 3.992188 1.859375 3.992188 2.25 L 3.992188 2.992188 C 3.992188 3.382812 3.835938 3.757812 3.558594 4.039062 C 3.28125 4.316406 2.902344 4.472656 2.511719 4.472656 L 1.769531 4.472656 C 1.378906 4.472656 1.003906 4.316406 0.726562 4.039062 C 0.445312 3.757812 0.292969 3.382812 0.292969 2.992188 L 0.292969 2.25 C 0.292969 1.859375 0.445312 1.480469 0.726562 1.203125 C 1.003906 0.925781 1.378906 0.769531 1.769531 0.769531 Z M 1.769531 0.769531 " clip-rule="nonzero"/></clipPath><clipPath id="d1cb7ace79"><rect x="0" width="4" y="0" height="5"/></clipPath></defs><g clip-path="url(#747d41cb52)"><g clip-path="url(#7e5c04c4d4)"><g transform="matrix(1, 0, 0, 1, 6, 29)"><g clip-path="url(#ad74d619b5)"><g clip-path="url(#5b1ea699ee)"><g clip-path="url(#828c35c132)"><path fill="#ffffff" d="M 0.292969 0.457031 L 9.398438 0.457031 L 9.398438 5.636719 L 0.292969 5.636719 Z M 0.292969 0.457031 " fill-opacity="1" fill-rule="nonzero"/></g></g></g></g></g></g><g clip-path="url(#9ea648fdc6)"><g transform="matrix(1, 0, 0, 1, 0.000000000000000056, 0)"><g clip-path="url(#a996c5812f)"><path fill="#004aad" d="M 29.726562 18.914062 C 30.136719 18.914062 30.53125 18.847656 30.917969 18.71875 C 31.308594 18.585938 31.664062 18.398438 31.988281 18.152344 C 32.316406 17.90625 32.59375 17.613281 32.824219 17.277344 C 33.054688 16.9375 33.222656 16.574219 33.335938 16.179688 C 33.386719 16.011719 33.367188 15.847656 33.285156 15.691406 C 33.199219 15.535156 33.070312 15.433594 32.898438 15.386719 C 32.726562 15.339844 32.5625 15.359375 32.410156 15.449219 C 32.257812 15.535156 32.15625 15.667969 32.113281 15.839844 C 32.03125 16.128906 31.902344 16.394531 31.722656 16.632812 C 31.546875 16.875 31.332031 17.078125 31.078125 17.242188 C 30.828125 17.40625 30.554688 17.519531 30.261719 17.585938 C 29.96875 17.648438 29.675781 17.660156 29.378906 17.621094 C 29.082031 17.578125 28.800781 17.484375 28.539062 17.34375 C 28.273438 17.199219 28.042969 17.015625 27.847656 16.789062 C 27.652344 16.5625 27.5 16.308594 27.394531 16.027344 C 27.289062 15.746094 27.238281 15.457031 27.238281 15.15625 C 27.238281 14.761719 27.328125 14.390625 27.503906 14.039062 C 27.683594 13.691406 27.929688 13.398438 28.246094 13.167969 C 28.394531 13.066406 28.484375 12.929688 28.515625 12.753906 C 28.546875 12.578125 28.511719 12.417969 28.40625 12.273438 C 28.304688 12.125 28.164062 12.042969 27.984375 12.015625 C 27.808594 11.988281 27.648438 12.03125 27.507812 12.136719 C 27.1875 12.371094 26.914062 12.648438 26.679688 12.96875 C 26.449219 13.289062 26.273438 13.636719 26.152344 14.015625 C 26.03125 14.390625 25.96875 14.777344 25.96875 15.175781 C 25.972656 15.570312 26.03125 15.957031 26.15625 16.332031 C 26.28125 16.707031 26.457031 17.054688 26.691406 17.375 C 26.925781 17.695312 27.203125 17.96875 27.523438 18.203125 C 27.84375 18.433594 28.191406 18.609375 28.566406 18.730469 C 28.945312 18.855469 29.332031 18.914062 29.726562 18.914062 Z M 29.726562 18.914062 " fill-opacity="1" fill-rule="nonzero"/><path fill="#004aad" d="M 33.128906 16.808594 C 33.300781 16.8125 33.460938 16.769531 33.609375 16.683594 C 33.90625 16.515625 34.070312 16.257812 34.101562 15.917969 C 34.121094 15.742188 34.128906 15.566406 34.125 15.390625 C 34.117188 14.898438 34.03125 14.425781 33.871094 13.960938 C 33.707031 13.5 33.480469 13.074219 33.179688 12.6875 C 32.882812 12.296875 32.53125 11.964844 32.128906 11.691406 C 31.722656 11.414062 31.285156 11.207031 30.816406 11.074219 C 29.675781 10.75 28.570312 10.851562 27.507812 11.375 C 27.363281 11.445312 27.242188 11.546875 27.148438 11.679688 C 27.054688 11.8125 26.996094 11.957031 26.976562 12.117188 C 26.953125 12.277344 26.96875 12.433594 27.023438 12.585938 C 27.082031 12.738281 27.167969 12.871094 27.289062 12.980469 C 28.921875 14.476562 30.730469 15.722656 32.710938 16.714844 C 32.84375 16.777344 32.984375 16.808594 33.128906 16.808594 Z M 32.839844 15.792969 Z M 29.542969 12.167969 C 29.859375 12.167969 30.171875 12.210938 30.480469 12.296875 C 30.816406 12.394531 31.125 12.539062 31.414062 12.738281 C 31.703125 12.933594 31.953125 13.167969 32.167969 13.445312 C 32.378906 13.722656 32.546875 14.023438 32.664062 14.351562 C 32.78125 14.679688 32.84375 15.019531 32.855469 15.367188 C 31.28125 14.527344 29.824219 13.519531 28.480469 12.339844 C 28.828125 12.222656 29.179688 12.167969 29.542969 12.167969 Z M 28.136719 12.035156 Z M 28.136719 12.035156 " fill-opacity="1" fill-rule="nonzero"/><path fill="#004aad" d="M 31.242188 20.128906 C 31.632812 20.128906 32 20.027344 32.339844 19.832031 C 32.5625 19.722656 32.753906 19.578125 32.917969 19.394531 C 33.082031 19.207031 33.207031 19 33.289062 18.765625 C 33.367188 18.535156 33.402344 18.292969 33.386719 18.046875 C 33.375 17.800781 33.3125 17.566406 33.207031 17.347656 C 32.980469 16.957031 32.644531 16.710938 32.203125 16.609375 C 32.035156 16.570312 31.875 16.59375 31.722656 16.6875 C 31.574219 16.777344 31.480469 16.910156 31.441406 17.082031 C 31.398438 17.25 31.425781 17.410156 31.515625 17.558594 C 31.609375 17.707031 31.738281 17.804688 31.910156 17.84375 C 31.996094 17.859375 32.0625 17.902344 32.109375 17.980469 C 32.210938 18.160156 32.0625 18.523438 31.703125 18.734375 C 31.351562 18.933594 30.964844 18.886719 30.855469 18.703125 C 30.8125 18.609375 30.8125 18.511719 30.847656 18.414062 C 30.898438 18.246094 30.878906 18.085938 30.796875 17.933594 C 30.714844 17.777344 30.585938 17.675781 30.417969 17.628906 C 30.25 17.578125 30.089844 17.59375 29.9375 17.679688 C 29.78125 17.761719 29.679688 17.886719 29.632812 18.054688 C 29.488281 18.5 29.53125 18.929688 29.757812 19.339844 C 29.917969 19.59375 30.128906 19.792969 30.394531 19.933594 C 30.65625 20.074219 30.941406 20.140625 31.242188 20.128906 Z M 31.242188 20.128906 " fill-opacity="1" fill-rule="nonzero"/><path fill="#004aad" d="M 8.925781 31.9375 C 9.011719 31.9375 9.09375 31.921875 9.171875 31.886719 L 13.878906 29.882812 C 15.066406 29.382812 15.980469 28.570312 16.621094 27.445312 L 19.160156 23.019531 C 19.574219 22.8125 19.964844 22.636719 20.339844 22.480469 C 20.5 22.414062 20.613281 22.300781 20.683594 22.140625 C 20.75 21.980469 20.75 21.816406 20.683594 21.65625 C 20.617188 21.496094 20.503906 21.378906 20.34375 21.3125 C 20.183594 21.246094 20.023438 21.242188 19.859375 21.308594 C 19.402344 21.496094 18.929688 21.710938 18.417969 21.972656 C 18.304688 22.03125 18.214844 22.113281 18.152344 22.222656 L 15.519531 26.816406 C 15.019531 27.691406 14.308594 28.324219 13.378906 28.71875 L 9.257812 30.472656 L 8.621094 28.996094 L 12.644531 26.929688 C 12.945312 26.773438 13.175781 26.550781 13.335938 26.257812 L 15.308594 22.742188 C 15.359375 22.648438 15.386719 22.550781 15.386719 22.441406 C 15.390625 22.335938 15.367188 22.234375 15.316406 22.136719 C 15.265625 22.042969 15.195312 21.964844 15.105469 21.90625 C 15.015625 21.847656 14.917969 21.8125 14.8125 21.800781 L 10.75 21.421875 C 9.953125 21.351562 9.292969 21.007812 8.777344 20.390625 L 5.960938 17.0625 L 7.011719 16.171875 L 9.421875 18.949219 C 9.535156 19.082031 9.679688 19.152344 9.855469 19.164062 C 10.03125 19.179688 10.183594 19.125 10.316406 19.011719 C 10.449219 18.898438 10.523438 18.753906 10.535156 18.578125 C 10.546875 18.402344 10.496094 18.25 10.378906 18.117188 L 7.5625 14.863281 C 7.449219 14.734375 7.304688 14.660156 7.128906 14.648438 C 6.957031 14.632812 6.804688 14.683594 6.671875 14.796875 L 4.65625 16.5 C 4.523438 16.613281 4.449219 16.757812 4.433594 16.933594 C 4.421875 17.109375 4.46875 17.261719 4.582031 17.394531 L 7.808594 21.210938 C 8.546875 22.089844 9.488281 22.582031 10.632812 22.6875 L 13.722656 22.972656 L 12.230469 25.640625 C 12.191406 25.710938 12.136719 25.761719 12.066406 25.800781 L 7.515625 28.136719 C 7.367188 28.214844 7.265625 28.328125 7.207031 28.484375 C 7.152344 28.644531 7.15625 28.796875 7.222656 28.953125 L 8.339844 31.554688 C 8.453125 31.808594 8.644531 31.9375 8.925781 31.9375 Z M 8.925781 31.9375 " fill-opacity="1" fill-rule="nonzero"/><g clip-path="url(#de67bb6f38)"><path fill="#004aad" d="M 34.023438 26.003906 C 34.296875 26.003906 34.5625 25.953125 34.816406 25.855469 C 35.070312 25.753906 35.300781 25.609375 35.5 25.425781 C 35.703125 25.238281 35.863281 25.023438 35.980469 24.773438 C 36.101562 24.527344 36.171875 24.269531 36.191406 23.996094 C 36.214844 23.722656 36.183594 23.453125 36.105469 23.191406 C 36.023438 22.929688 35.898438 22.691406 35.726562 22.476562 C 35.558594 22.261719 35.355469 22.085938 35.117188 21.945312 C 34.882812 21.808594 34.628906 21.71875 34.355469 21.675781 L 30.550781 21.089844 C 30.285156 21.050781 30.050781 20.945312 29.839844 20.777344 C 29.628906 20.613281 29.472656 20.40625 29.375 20.15625 L 28.1875 17.207031 C 28.125 17.042969 28.011719 16.925781 27.847656 16.855469 C 27.6875 16.785156 27.523438 16.785156 27.359375 16.851562 C 27.195312 16.914062 27.082031 17.03125 27.011719 17.191406 C 26.945312 17.355469 26.945312 17.519531 27.011719 17.679688 L 28.199219 20.628906 C 28.378906 21.085938 28.664062 21.46875 29.050781 21.773438 C 29.433594 22.078125 29.871094 22.269531 30.359375 22.34375 L 34.160156 22.929688 C 34.410156 22.96875 34.605469 23.089844 34.753906 23.289062 C 34.902344 23.492188 34.957031 23.71875 34.917969 23.964844 C 34.882812 24.214844 34.761719 24.410156 34.558594 24.558594 C 34.355469 24.707031 34.132812 24.761719 33.882812 24.722656 L 29.199219 24.007812 C 28.164062 23.847656 27.320312 23.359375 26.679688 22.53125 L 24.964844 20.351562 C 24.820312 20.171875 24.632812 20.09375 24.402344 20.113281 C 23.679688 20.1875 22.96875 20.316406 22.269531 20.496094 C 22.09375 20.535156 21.960938 20.632812 21.871094 20.785156 C 21.777344 20.9375 21.753906 21.097656 21.796875 21.269531 C 21.839844 21.441406 21.941406 21.574219 22.09375 21.664062 C 22.246094 21.75 22.410156 21.773438 22.582031 21.726562 C 23.109375 21.589844 23.644531 21.488281 24.1875 21.414062 L 25.679688 23.3125 C 26.527344 24.402344 27.636719 25.050781 29.003906 25.261719 L 33.691406 25.976562 C 33.800781 25.996094 33.910156 26.003906 34.023438 26.003906 Z M 34.023438 26.003906 " fill-opacity="1" fill-rule="nonzero"/></g><g clip-path="url(#79e7bdea87)"><path fill="#004aad" d="M 5.691406 36.1875 C 5.984375 36.1875 6.253906 36.113281 6.5 35.960938 C 6.746094 35.804688 6.9375 35.601562 7.066406 35.339844 C 7.722656 34.042969 8.511719 32.824219 9.425781 31.695312 C 9.535156 31.554688 9.578125 31.398438 9.554688 31.226562 C 9.535156 31.050781 9.453125 30.910156 9.316406 30.804688 C 9.175781 30.695312 9.019531 30.652344 8.847656 30.675781 C 8.671875 30.699219 8.53125 30.777344 8.425781 30.917969 C 7.457031 32.113281 6.628906 33.398438 5.933594 34.769531 C 5.894531 34.851562 5.832031 34.898438 5.742188 34.914062 C 5.652344 34.933594 5.574219 34.90625 5.507812 34.84375 C 4.785156 34.140625 4.242188 33.320312 3.878906 32.378906 C 3.847656 32.296875 3.859375 32.226562 3.910156 32.15625 C 4.914062 30.898438 6.101562 30.289062 8.070312 29.28125 L 7.519531 28.136719 C 5.445312 29.199219 4.09375 29.894531 2.917969 31.363281 C 2.753906 31.574219 2.648438 31.8125 2.609375 32.078125 C 2.570312 32.34375 2.601562 32.601562 2.703125 32.851562 C 3.132812 33.964844 3.777344 34.9375 4.640625 35.765625 C 4.933594 36.046875 5.285156 36.1875 5.691406 36.1875 Z M 5.691406 36.1875 " fill-opacity="1" fill-rule="nonzero"/></g><g clip-path="url(#1e539b1ec6)"><path fill="#004aad" d="M 5.066406 17.625 C 5.351562 17.625 5.546875 17.492188 5.652344 17.226562 C 5.761719 16.964844 5.710938 16.730469 5.507812 16.535156 C 4.421875 15.484375 3.238281 14.558594 1.964844 13.75 C 2.371094 13.203125 2.882812 12.777344 3.5 12.480469 C 4.632812 13.449219 5.664062 14.515625 6.589844 15.683594 C 6.703125 15.820312 6.84375 15.894531 7.019531 15.914062 C 7.195312 15.929688 7.347656 15.882812 7.484375 15.769531 C 7.621094 15.660156 7.695312 15.515625 7.714844 15.34375 C 7.730469 15.167969 7.683594 15.011719 7.570312 14.878906 C 6.59375 13.652344 5.511719 12.527344 4.320312 11.507812 C 4.128906 11.347656 3.90625 11.253906 3.65625 11.222656 C 3.40625 11.191406 3.167969 11.230469 2.941406 11.339844 C 2.179688 11.714844 1.527344 12.230469 0.976562 12.878906 C 0.726562 13.179688 0.628906 13.519531 0.6875 13.90625 C 0.746094 14.304688 0.945312 14.609375 1.285156 14.824219 C 2.488281 15.582031 3.601562 16.457031 4.625 17.445312 C 4.746094 17.5625 4.894531 17.625 5.066406 17.625 Z M 5.066406 17.625 " fill-opacity="1" fill-rule="nonzero"/></g><path fill="#004aad" d="M 14.308594 18.679688 C 14.617188 18.679688 14.917969 18.632812 15.210938 18.542969 L 22.335938 16.359375 C 22.726562 16.242188 23.082031 16.050781 23.398438 15.792969 C 23.714844 15.53125 23.96875 15.21875 24.160156 14.859375 C 24.355469 14.496094 24.46875 14.113281 24.507812 13.703125 C 24.546875 13.296875 24.507812 12.898438 24.386719 12.503906 C 24.269531 12.113281 24.078125 11.761719 23.816406 11.445312 C 23.554688 11.128906 23.242188 10.875 22.882812 10.683594 C 22.519531 10.492188 22.132812 10.375 21.726562 10.339844 C 21.320312 10.300781 20.917969 10.34375 20.527344 10.464844 L 13.402344 12.644531 C 13.050781 12.753906 12.726562 12.921875 12.433594 13.144531 C 12.140625 13.371094 11.894531 13.636719 11.699219 13.949219 C 11.5 14.261719 11.363281 14.601562 11.289062 14.960938 C 11.214844 15.324219 11.203125 15.6875 11.257812 16.050781 C 11.3125 16.417969 11.429688 16.761719 11.605469 17.085938 C 11.785156 17.410156 12.015625 17.691406 12.296875 17.933594 C 12.574219 18.171875 12.886719 18.359375 13.234375 18.484375 C 13.582031 18.613281 13.9375 18.679688 14.308594 18.679688 Z M 21.429688 11.597656 C 21.648438 11.597656 21.859375 11.632812 22.0625 11.710938 C 22.265625 11.785156 22.449219 11.894531 22.613281 12.035156 C 22.78125 12.175781 22.914062 12.34375 23.019531 12.535156 C 23.125 12.722656 23.195312 12.925781 23.226562 13.140625 C 23.257812 13.355469 23.253906 13.570312 23.207031 13.785156 C 23.164062 13.996094 23.082031 14.195312 22.96875 14.378906 C 22.851562 14.5625 22.707031 14.722656 22.535156 14.855469 C 22.363281 14.984375 22.171875 15.082031 21.964844 15.148438 L 14.839844 17.328125 C 14.488281 17.4375 14.136719 17.4375 13.785156 17.332031 C 13.433594 17.226562 13.140625 17.03125 12.90625 16.75 C 12.675781 16.464844 12.539062 16.144531 12.5 15.777344 C 12.464844 15.414062 12.53125 15.066406 12.703125 14.742188 C 12.9375 14.300781 13.296875 14.003906 13.773438 13.859375 L 20.898438 11.675781 C 21.074219 11.625 21.25 11.597656 21.429688 11.597656 Z M 21.429688 11.597656 " fill-opacity="1" fill-rule="nonzero"/><path fill="#004aad" d="M 21.074219 23.519531 C 21.242188 23.519531 21.402344 23.492188 21.558594 23.441406 L 22.195312 23.226562 C 22.386719 23.164062 22.558594 23.0625 22.710938 22.929688 C 22.863281 22.796875 22.988281 22.640625 23.078125 22.457031 C 23.167969 22.277344 23.21875 22.085938 23.234375 21.882812 C 23.25 21.679688 23.222656 21.484375 23.160156 21.289062 L 22.054688 17.988281 C 21.996094 17.824219 21.890625 17.703125 21.734375 17.628906 C 21.578125 17.550781 21.417969 17.539062 21.25 17.59375 C 21.085938 17.652344 20.964844 17.753906 20.886719 17.910156 C 20.808594 18.066406 20.796875 18.226562 20.851562 18.394531 L 21.957031 21.695312 C 21.976562 21.761719 21.972656 21.828125 21.941406 21.894531 C 21.910156 21.957031 21.859375 22 21.789062 22.023438 L 21.15625 22.238281 C 21.089844 22.257812 21.023438 22.253906 20.957031 22.222656 C 20.894531 22.191406 20.851562 22.140625 20.828125 22.070312 L 19.675781 18.636719 C 19.621094 18.472656 19.511719 18.355469 19.359375 18.277344 C 19.203125 18.199219 19.042969 18.191406 18.875 18.246094 C 18.710938 18.300781 18.589844 18.40625 18.511719 18.558594 C 18.433594 18.714844 18.421875 18.875 18.472656 19.042969 L 19.625 22.476562 C 19.730469 22.785156 19.914062 23.039062 20.183594 23.230469 C 20.449219 23.421875 20.746094 23.519531 21.074219 23.519531 Z M 21.074219 23.519531 " fill-opacity="1" fill-rule="nonzero"/><g clip-path="url(#adc9f94fc3)"><path fill="#004aad" d="M 7.6875 5.582031 C 8.261719 5.601562 8.8125 5.492188 9.339844 5.261719 C 9.867188 5.027344 10.316406 4.691406 10.691406 4.25 C 10.949219 3.921875 11.078125 3.546875 11.078125 3.125 C 11.078125 2.703125 10.949219 2.328125 10.691406 1.996094 C 10.214844 1.453125 9.632812 1.066406 8.945312 0.84375 C 8.257812 0.617188 7.558594 0.582031 6.851562 0.738281 C 6.203125 0.808594 5.613281 1.042969 5.085938 1.433594 C 4.5625 1.824219 4.171875 2.320312 3.914062 2.921875 C 3.867188 3.058594 3.867188 3.191406 3.914062 3.328125 C 4.171875 3.929688 4.5625 4.425781 5.085938 4.816406 C 5.613281 5.207031 6.203125 5.4375 6.851562 5.507812 C 7.128906 5.558594 7.40625 5.582031 7.6875 5.582031 Z M 9.695312 3.460938 C 9.359375 3.820312 8.960938 4.070312 8.492188 4.210938 C 8.023438 4.355469 7.550781 4.371094 7.070312 4.261719 C 6.273438 4.167969 5.652344 3.792969 5.203125 3.125 C 5.652344 2.457031 6.273438 2.078125 7.070312 1.988281 C 7.550781 1.878906 8.023438 1.894531 8.492188 2.035156 C 8.960938 2.179688 9.359375 2.429688 9.695312 2.785156 C 9.773438 2.886719 9.808594 3 9.808594 3.125 C 9.808594 3.25 9.773438 3.363281 9.695312 3.460938 Z M 9.695312 3.460938 " fill-opacity="1" fill-rule="nonzero"/></g><g clip-path="url(#11a1300160)"><path fill="#004aad" d="M 1.753906 5.582031 C 1.878906 5.582031 1.996094 5.546875 2.101562 5.476562 L 4.863281 3.652344 C 4.953125 3.59375 5.023438 3.519531 5.074219 3.425781 C 5.125 3.332031 5.148438 3.230469 5.148438 3.125 C 5.148438 3.019531 5.125 2.917969 5.074219 2.824219 C 5.023438 2.730469 4.953125 2.652344 4.863281 2.59375 L 2.101562 0.769531 C 1.945312 0.667969 1.777344 0.640625 1.59375 0.6875 C 1.414062 0.730469 1.277344 0.839844 1.191406 1.003906 C 0.847656 1.660156 0.671875 2.363281 0.671875 3.105469 C 0.667969 3.847656 0.835938 4.550781 1.175781 5.210938 C 1.289062 5.457031 1.480469 5.582031 1.753906 5.582031 Z M 3.363281 3.125 L 2.070312 3.976562 C 1.902344 3.40625 1.894531 2.832031 2.050781 2.257812 Z M 3.363281 3.125 " fill-opacity="1" fill-rule="nonzero"/></g><path fill="#004aad" d="M 18.917969 8.921875 C 19.472656 8.941406 20.003906 8.835938 20.511719 8.613281 C 21.019531 8.386719 21.453125 8.0625 21.808594 7.640625 C 22.0625 7.320312 22.1875 6.953125 22.1875 6.546875 C 22.1875 6.136719 22.0625 5.773438 21.808594 5.449219 C 21.351562 4.925781 20.789062 4.554688 20.128906 4.339844 C 19.46875 4.121094 18.796875 4.085938 18.117188 4.238281 C 17.488281 4.308594 16.921875 4.53125 16.414062 4.90625 C 15.910156 5.285156 15.53125 5.761719 15.285156 6.34375 C 15.242188 6.476562 15.242188 6.613281 15.285156 6.746094 C 15.53125 7.328125 15.910156 7.804688 16.414062 8.183594 C 16.921875 8.558594 17.488281 8.78125 18.117188 8.851562 C 18.382812 8.898438 18.648438 8.921875 18.917969 8.921875 Z M 20.816406 6.851562 C 20.5 7.1875 20.121094 7.425781 19.675781 7.558594 C 19.234375 7.691406 18.785156 7.707031 18.335938 7.601562 C 17.589844 7.515625 17.003906 7.164062 16.578125 6.542969 C 17.003906 5.925781 17.589844 5.574219 18.335938 5.488281 C 18.785156 5.382812 19.234375 5.398438 19.675781 5.53125 C 20.121094 5.664062 20.5 5.902344 20.816406 6.238281 C 20.96875 6.441406 20.96875 6.648438 20.816406 6.851562 Z M 20.816406 6.851562 " fill-opacity="1" fill-rule="nonzero"/><path fill="#004aad" d="M 13.246094 8.921875 C 13.375 8.921875 13.492188 8.886719 13.597656 8.816406 L 16.238281 7.074219 C 16.324219 7.015625 16.394531 6.9375 16.445312 6.84375 C 16.496094 6.75 16.523438 6.652344 16.523438 6.542969 C 16.523438 6.4375 16.496094 6.335938 16.445312 6.242188 C 16.394531 6.148438 16.324219 6.074219 16.238281 6.015625 L 13.597656 4.273438 C 13.441406 4.167969 13.273438 4.140625 13.089844 4.1875 C 12.910156 4.234375 12.773438 4.339844 12.6875 4.503906 C 12.355469 5.136719 12.1875 5.8125 12.1875 6.527344 C 12.183594 7.238281 12.34375 7.914062 12.671875 8.550781 C 12.75 8.726562 12.882812 8.84375 13.070312 8.898438 C 13.128906 8.914062 13.1875 8.921875 13.246094 8.921875 Z M 14.734375 6.542969 L 13.570312 7.316406 C 13.421875 6.800781 13.417969 6.28125 13.546875 5.761719 Z M 14.734375 6.542969 " fill-opacity="1" fill-rule="nonzero"/><path fill="#004aad" d="M 32.726562 10.011719 C 33 10.011719 33.261719 9.960938 33.511719 9.859375 C 33.765625 9.753906 33.984375 9.605469 34.179688 9.414062 C 34.371094 9.21875 34.519531 9 34.625 8.746094 C 34.726562 8.496094 34.777344 8.234375 34.78125 7.960938 C 34.78125 7.691406 34.726562 7.429688 34.625 7.175781 C 34.519531 6.925781 34.371094 6.703125 34.179688 6.511719 C 33.984375 6.320312 33.765625 6.171875 33.511719 6.066406 C 33.261719 5.960938 33 5.910156 32.726562 5.910156 C 32.457031 5.910156 32.195312 5.960938 31.941406 6.066406 C 31.691406 6.171875 31.46875 6.320312 31.277344 6.511719 C 31.085938 6.703125 30.9375 6.925781 30.832031 7.175781 C 30.726562 7.429688 30.675781 7.691406 30.675781 7.960938 C 30.675781 8.234375 30.730469 8.496094 30.832031 8.746094 C 30.9375 9 31.085938 9.21875 31.277344 9.414062 C 31.46875 9.605469 31.691406 9.753906 31.941406 9.855469 C 32.195312 9.960938 32.457031 10.011719 32.726562 10.011719 Z M 32.726562 7.179688 C 32.945312 7.179688 33.128906 7.253906 33.28125 7.410156 C 33.433594 7.5625 33.511719 7.746094 33.511719 7.960938 C 33.511719 8.179688 33.433594 8.363281 33.28125 8.515625 C 33.128906 8.667969 32.945312 8.746094 32.726562 8.746094 C 32.511719 8.746094 32.328125 8.667969 32.175781 8.515625 C 32.023438 8.363281 31.945312 8.179688 31.945312 7.960938 C 31.945312 7.746094 32.023438 7.5625 32.175781 7.410156 C 32.328125 7.257812 32.511719 7.179688 32.726562 7.179688 Z M 32.726562 7.179688 " fill-opacity="1" fill-rule="nonzero"/><path fill="#004aad" d="M 28.78125 5.980469 C 29.054688 5.980469 29.316406 5.925781 29.566406 5.824219 C 29.816406 5.71875 30.039062 5.570312 30.230469 5.378906 C 30.425781 5.1875 30.574219 4.964844 30.675781 4.714844 C 30.78125 4.460938 30.832031 4.199219 30.832031 3.929688 C 30.832031 3.65625 30.78125 3.394531 30.675781 3.144531 C 30.574219 2.890625 30.425781 2.667969 30.234375 2.476562 C 30.039062 2.285156 29.820312 2.136719 29.566406 2.03125 C 29.316406 1.929688 29.054688 1.875 28.78125 1.875 C 28.511719 1.875 28.25 1.929688 27.996094 2.03125 C 27.746094 2.136719 27.523438 2.285156 27.332031 2.476562 C 27.140625 2.667969 26.992188 2.890625 26.886719 3.140625 C 26.78125 3.394531 26.730469 3.65625 26.730469 3.925781 C 26.730469 4.199219 26.78125 4.460938 26.886719 4.710938 C 26.992188 4.964844 27.140625 5.183594 27.332031 5.378906 C 27.523438 5.570312 27.746094 5.71875 27.996094 5.824219 C 28.25 5.925781 28.507812 5.980469 28.78125 5.980469 Z M 28.78125 3.144531 C 28.996094 3.144531 29.183594 3.222656 29.335938 3.375 C 29.488281 3.527344 29.566406 3.710938 29.566406 3.925781 C 29.566406 4.144531 29.488281 4.328125 29.335938 4.480469 C 29.183594 4.632812 29 4.710938 28.78125 4.710938 C 28.566406 4.710938 28.382812 4.632812 28.226562 4.480469 C 28.074219 4.328125 28 4.144531 28 3.925781 C 28 3.710938 28.074219 3.527344 28.230469 3.375 C 28.382812 3.222656 28.566406 3.144531 28.78125 3.144531 Z M 28.78125 3.144531 " fill-opacity="1" fill-rule="nonzero"/><path fill="#004aad" d="M 26.90625 9.390625 C 27.1875 9.390625 27.382812 9.257812 27.492188 8.996094 C 27.597656 8.734375 27.550781 8.503906 27.347656 8.304688 C 27.222656 8.1875 27.074219 8.128906 26.902344 8.128906 C 26.730469 8.128906 26.582031 8.1875 26.453125 8.304688 C 26.425781 8.335938 26.402344 8.367188 26.378906 8.398438 C 26.355469 8.433594 26.335938 8.472656 26.320312 8.515625 C 26.304688 8.550781 26.289062 8.589844 26.28125 8.628906 C 26.273438 8.667969 26.269531 8.710938 26.269531 8.753906 C 26.269531 8.839844 26.285156 8.917969 26.316406 8.996094 C 26.347656 9.074219 26.394531 9.144531 26.453125 9.207031 C 26.515625 9.261719 26.585938 9.308594 26.664062 9.339844 C 26.742188 9.371094 26.820312 9.386719 26.90625 9.390625 Z M 26.90625 9.390625 " fill-opacity="1" fill-rule="nonzero"/><path fill="#004aad" d="M 24.359375 5.023438 C 24.535156 5.023438 24.683594 4.957031 24.808594 4.835938 C 24.929688 4.710938 24.992188 4.5625 24.996094 4.390625 C 24.996094 4.214844 24.933594 4.066406 24.8125 3.941406 C 24.683594 3.820312 24.535156 3.761719 24.359375 3.761719 C 24.1875 3.761719 24.039062 3.820312 23.910156 3.941406 C 23.882812 3.96875 23.859375 4 23.835938 4.035156 C 23.808594 4.070312 23.792969 4.109375 23.777344 4.148438 C 23.757812 4.183594 23.746094 4.222656 23.738281 4.261719 C 23.730469 4.304688 23.722656 4.347656 23.726562 4.390625 C 23.726562 4.566406 23.789062 4.714844 23.914062 4.835938 C 24.039062 4.960938 24.1875 5.023438 24.359375 5.023438 Z M 24.359375 5.023438 " fill-opacity="1" fill-rule="nonzero"/><g clip-path="url(#983fbf1b0b)"><path fill="#004aad" d="M 19.789062 36.191406 C 19.953125 36.191406 20.097656 36.136719 20.21875 36.023438 C 20.339844 35.910156 20.40625 35.773438 20.421875 35.605469 C 20.492188 34.652344 20.78125 29.828125 19.324219 28.371094 C 19.203125 28.246094 19.050781 28.183594 18.875 28.179688 C 18.699219 28.179688 18.546875 28.242188 18.421875 28.367188 C 18.296875 28.492188 18.234375 28.644531 18.238281 28.820312 C 18.238281 28.996094 18.300781 29.144531 18.429688 29.269531 C 19.199219 30.039062 19.316406 33.382812 19.15625 35.507812 C 19.140625 35.683594 19.191406 35.839844 19.304688 35.972656 C 19.421875 36.105469 19.566406 36.175781 19.738281 36.191406 C 19.757812 36.191406 19.773438 36.191406 19.789062 36.191406 Z M 19.789062 36.191406 " fill-opacity="1" fill-rule="nonzero"/></g><path fill="#004aad" d="M 19.839844 35.007812 C 20.058594 35.011719 20.234375 34.921875 20.359375 34.738281 C 20.992188 34.089844 21.753906 33.664062 22.640625 33.460938 C 22.8125 33.414062 22.941406 33.3125 23.027344 33.15625 C 23.113281 33 23.132812 32.835938 23.078125 32.664062 C 23.027344 32.492188 22.921875 32.367188 22.761719 32.285156 C 22.605469 32.203125 22.441406 32.191406 22.269531 32.25 C 20.125 32.90625 19.394531 33.90625 19.316406 34.019531 C 19.21875 34.164062 19.183594 34.320312 19.21875 34.492188 C 19.25 34.664062 19.339844 34.800781 19.484375 34.898438 C 19.589844 34.972656 19.710938 35.011719 19.839844 35.007812 Z M 19.839844 35.007812 " fill-opacity="1" fill-rule="nonzero"/><path fill="#004aad" d="M 19.792969 32.703125 C 20.085938 32.703125 20.285156 32.566406 20.390625 32.292969 C 20.492188 32.019531 20.433594 31.785156 20.214844 31.589844 C 19.441406 30.992188 18.566406 30.636719 17.59375 30.527344 C 17.421875 30.511719 17.269531 30.5625 17.136719 30.671875 C 17.003906 30.78125 16.929688 30.925781 16.910156 31.097656 C 16.894531 31.269531 16.941406 31.421875 17.046875 31.558594 C 17.15625 31.691406 17.296875 31.769531 17.46875 31.789062 C 18.171875 31.871094 18.808594 32.125 19.375 32.546875 C 19.496094 32.652344 19.636719 32.703125 19.792969 32.703125 Z M 19.792969 32.703125 " fill-opacity="1" fill-rule="nonzero"/><g clip-path="url(#1fdae61ae4)"><path fill="#004aad" d="M 27.847656 36.191406 C 27.945312 36.191406 28.039062 36.171875 28.128906 36.128906 C 28.214844 36.085938 28.289062 36.023438 28.351562 35.945312 C 28.410156 35.871094 28.449219 35.78125 28.46875 35.6875 C 28.488281 35.589844 28.488281 35.496094 28.464844 35.398438 C 28.410156 34.582031 28.867188 29.878906 32.632812 28.59375 C 32.800781 28.539062 32.921875 28.429688 33 28.273438 C 33.078125 28.117188 33.089844 27.953125 33.03125 27.785156 C 32.976562 27.621094 32.867188 27.5 32.710938 27.421875 C 32.550781 27.34375 32.390625 27.335938 32.222656 27.394531 C 27.460938 29.019531 27.089844 34.902344 27.214844 35.636719 C 27.238281 35.792969 27.3125 35.921875 27.429688 36.027344 C 27.550781 36.132812 27.691406 36.1875 27.847656 36.191406 Z M 27.847656 36.191406 " fill-opacity="1" fill-rule="nonzero"/></g><path fill="#004aad" d="M 29.160156 31.285156 C 29.191406 31.285156 29.222656 31.28125 29.25 31.277344 C 29.425781 31.253906 29.5625 31.171875 29.667969 31.03125 C 29.773438 30.890625 29.8125 30.734375 29.789062 30.558594 C 29.773438 30.445312 29.363281 27.769531 27.007812 27.175781 C 26.835938 27.132812 26.675781 27.15625 26.527344 27.246094 C 26.375 27.335938 26.277344 27.464844 26.234375 27.632812 C 26.191406 27.804688 26.214844 27.964844 26.304688 28.113281 C 26.394531 28.265625 26.527344 28.363281 26.695312 28.40625 C 28.238281 28.792969 28.53125 30.71875 28.535156 30.738281 C 28.554688 30.894531 28.625 31.027344 28.746094 31.128906 C 28.863281 31.234375 29.003906 31.285156 29.160156 31.285156 Z M 29.160156 31.285156 " fill-opacity="1" fill-rule="nonzero"/><path fill="#004aad" d="M 28.335938 33.082031 C 28.558594 33.082031 28.730469 32.992188 28.859375 32.808594 C 28.910156 32.738281 29.90625 31.46875 32.949219 32.382812 C 33.117188 32.433594 33.277344 32.417969 33.433594 32.335938 C 33.585938 32.25 33.6875 32.125 33.738281 31.957031 C 33.789062 31.789062 33.773438 31.628906 33.691406 31.476562 C 33.605469 31.320312 33.480469 31.21875 33.3125 31.167969 C 29.289062 29.960938 27.867188 32.007812 27.808594 32.097656 C 27.667969 32.308594 27.65625 32.523438 27.777344 32.746094 C 27.894531 32.972656 28.082031 33.082031 28.335938 33.082031 Z M 28.335938 33.082031 " fill-opacity="1" fill-rule="nonzero"/><path fill="#004aad" d="M 27.925781 34.816406 C 28.097656 34.816406 28.246094 34.757812 28.367188 34.636719 C 28.421875 34.597656 28.945312 34.285156 30.480469 34.621094 C 30.648438 34.652344 30.804688 34.621094 30.949219 34.527344 C 31.09375 34.433594 31.183594 34.300781 31.21875 34.132812 C 31.257812 33.964844 31.230469 33.808594 31.136719 33.660156 C 31.046875 33.515625 30.917969 33.421875 30.75 33.382812 C 28.386719 32.859375 27.585938 33.609375 27.449219 33.761719 C 27.269531 33.96875 27.234375 34.195312 27.347656 34.441406 C 27.460938 34.691406 27.652344 34.816406 27.925781 34.816406 Z M 27.925781 34.816406 " fill-opacity="1" fill-rule="nonzero"/><path fill="#004aad" d="M 28.160156 33.675781 C 28.265625 33.675781 28.367188 33.648438 28.460938 33.597656 C 28.554688 33.546875 28.628906 33.480469 28.6875 33.390625 C 28.746094 33.300781 28.78125 33.203125 28.792969 33.097656 C 28.800781 32.992188 28.785156 32.890625 28.746094 32.792969 C 28.515625 32.226562 28.160156 31.75 27.6875 31.363281 C 27.210938 30.976562 26.675781 30.726562 26.070312 30.613281 C 25.898438 30.59375 25.746094 30.636719 25.609375 30.742188 C 25.472656 30.851562 25.394531 30.988281 25.371094 31.160156 C 25.347656 31.332031 25.386719 31.484375 25.492188 31.625 C 25.59375 31.761719 25.730469 31.84375 25.902344 31.871094 C 26.28125 31.953125 26.621094 32.117188 26.917969 32.367188 C 27.214844 32.621094 27.433594 32.925781 27.578125 33.285156 C 27.683594 33.546875 27.878906 33.675781 28.160156 33.675781 Z M 28.160156 33.675781 " fill-opacity="1" fill-rule="nonzero"/></g></g></g><g clip-path="url(#dcb90622be)"><g clip-path="url(#649b9b85ed)"><g transform="matrix(1, 0, 0, 1, 6, 7)"><g clip-path="url(#d1cb7ace79)"><g clip-path="url(#80e986ff5c)"><g clip-path="url(#50a8c143f8)"><path fill="#ffffff" d="M 0.292969 0.769531 L 3.992188 0.769531 L 3.992188 4.472656 L 0.292969 4.472656 Z M 0.292969 0.769531 " fill-opacity="1" fill-rule="nonzero"/></g></g></g></g></g></g></svg>